  0
SECTION
  2
BLOCKS
  0
ENDSEC
  0
SECTION
  2
ENTITIES
  0
LINE
  8
0
 10
250
 20
8.83882
 11
250
 21
37.5
  0
LINE
  8
0
 10
250
 20
37.5
 11
248.775
 21
37.5602
  0
LINE
  8
0
 10
248.775
 20
37.5602
 11
247.561
 21
37.7402
  0
LINE
  8
0
 10
247.561
 20
37.7402
 11
246.371
 21
38.0382
  0
LINE
  8
0
 10
246.371
 20
38.0382
 11
245.216
 21
38.4515
  0
LINE
  8
0
 10
245.216
 20
38.4515
 11
244.108
 21
38.976
  0
LINE
  8
0
 10
244.108
 20
38.976
 11
243.055
 21
39.6066
  0
LINE
  8
0
 10
243.055
 20
39.6066
 11
242.07
 21
40.3374
  0
LINE
  8
0
 10
242.07
 20
40.3374
 11
241.161
 21
41.1612
  0
LINE
  8
0
 10
241.161
 20
41.1612
 11
240.337
 21
42.0701
  0
LINE
  8
0
 10
240.337
 20
42.0701
 11
239.607
 21
43.0554
  0
LINE
  8
0
 10
239.607
 20
43.0554
 11
238.976
 21
44.1075
  0
LINE
  8
0
 10
238.976
 20
44.1075
 11
238.451
 21
45.2164
  0
LINE
  8
0
 10
238.451
 20
45.2164
 11
238.038
 21
46.3714
  0
LINE
  8
0
 10
238.038
 20
46.3714
 11
237.74
 21
47.5614
  0
LINE
  8
0
 10
237.74
 20
47.5614
 11
237.56
 21
48.7748
  0
LINE
  8
0
 10
237.56
 20
48.7748
 11
237.5
 21
50
  0
LINE
  8
0
 10
237.5
 20
50
 11
237.56
 21
51.2252
  0
LINE
  8
0
 10
237.56
 20
51.2252
 11
237.74
 21
52.4386
  0
LINE
  8
0
 10
237.74
 20
52.4386
 11
238.038
 21
53.6286
  0
LINE
  8
0
 10
238.038
 20
53.6286
 11
238.451
 21
54.7835
  0
LINE
  8
0
 10
238.451
 20
54.7835
 11
238.976
 21
55.8925
  0
LINE
  8
0
 10
238.976
 20
55.8925
 11
239.607
 21
56.9446
  0
LINE
  8
0
 10
239.607
 20
56.9446
 11
240.337
 21
57.9299
  0
LINE
  8
0
 10
240.337
 20
57.9299
 11
241.161
 21
58.8388
  0
LINE
  8
0
 10
241.161
 20
58.8388
 11
242.07
 21
59.6626
  0
LINE
  8
0
 10
242.07
 20
59.6626
 11
243.055
 21
60.3934
  0
LINE
  8
0
 10
243.055
 20
60.3934
 11
244.108
 21
61.024
  0
LINE
  8
0
 10
244.108
 20
61.024
 11
245.216
 21
61.5485
  0
LINE
  8
0
 10
245.216
 20
61.5485
 11
246.371
 21
61.9617
  0
LINE
  8
0
 10
246.371
 20
61.9617
 11
247.561
 21
62.2598
  0
LINE
  8
0
 10
247.561
 20
62.2598
 11
248.775
 21
62.4398
  0
LINE
  8
0
 10
248.775
 20
62.4398
 11
250
 21
62.5
  0
LINE
  8
0
 10
250
 20
62.5
 11
250
 21
91.1612
  0
LINE
  8
0
 10
250
 20
91.1612
 11
241.161
 21
100
  0
LINE
  8
0
 10
241.161
 20
100
 11
8.83882
 21
100
  0
LINE
  8
0
 10
8.83882
 20
100
 11
0
 21
91.1612
  0
LINE
  8
0
 10
0
 20
91.1612
 11
0
 21
62.5
  0
LINE
  8
0
 10
0
 20
62.5
 11
1.2252
 21
62.4398
  0
LINE
  8
0
 10
1.2252
 20
62.4398
 11
2.43861
 21
62.2598
  0
LINE
  8
0
 10
2.43861
 20
62.2598
 11
3.62856
 21
61.9617
  0
LINE
  8
0
 10
3.62856
 20
61.9617
 11
4.78354
 21
61.5485
  0
LINE
  8
0
 10
4.78354
 20
61.5485
 11
5.89246
 21
61.024
  0
LINE
  8
0
 10
5.89246
 20
61.024
 11
6.94463
 21
60.3934
  0
LINE
  8
0
 10
6.94463
 20
60.3934
 11
7.9299
 21
59.6626
  0
LINE
  8
0
 10
7.9299
 20
59.6626
 11
8.83882
 21
58.8388
  0
LINE
  8
0
 10
8.83882
 20
58.8388
 11
9.66263
 21
57.9299
  0
LINE
  8
0
 10
9.66263
 20
57.9299
 11
10.3934
 21
56.9446
  0
LINE
  8
0
 10
10.3934
 20
56.9446
 11
11.024
 21
55.8925
  0
LINE
  8
0
 10
11.024
 20
55.8925
 11
11.5485
 21
54.7835
  0
LINE
  8
0
 10
11.5485
 20
54.7835
 11
11.9617
 21
53.6286
  0
LINE
  8
0
 10
11.9617
 20
53.6286
 11
12.2598
 21
52.4386
  0
LINE
  8
0
 10
12.2598
 20
52.4386
 11
12.4398
 21
51.2252
  0
LINE
  8
0
 10
12.4398
 20
51.2252
 11
12.5
 21
50
  0
LINE
  8
0
 10
12.5
 20
50
 11
12.4398
 21
48.7748
  0
LINE
  8
0
 10
12.4398
 20
48.7748
 11
12.2598
 21
47.5614
  0
LINE
  8
0
 10
12.2598
 20
47.5614
 11
11.9617
 21
46.3714
  0
LINE
  8
0
 10
11.9617
 20
46.3714
 11
11.5485
 21
45.2164
  0
LINE
  8
0
 10
11.5485
 20
45.2164
 11
11.024
 21
44.1075
  0
LINE
  8
0
 10
11.024
 20
44.1075
 11
10.3934
 21
43.0554
  0
LINE
  8
0
 10
10.3934
 20
43.0554
 11
9.66263
 21
42.0701
  0
LINE
  8
0
 10
9.66263
 20
42.0701
 11
8.83882
 21
41.1612
  0
LINE
  8
0
 10
8.83882
 20
41.1612
 11
7.9299
 21
40.3374
  0
LINE
  8
0
 10
7.9299
 20
40.3374
 11
6.94463
 21
39.6066
  0
LINE
  8
0
 10
6.94463
 20
39.6066
 11
5.89246
 21
38.976
  0
LINE
  8
0
 10
5.89246
 20
38.976
 11
4.78354
 21
38.4515
  0
LINE
  8
0
 10
4.78354
 20
38.4515
 11
3.62856
 21
38.0382
  0
LINE
  8
0
 10
3.62856
 20
38.0382
 11
2.43861
 21
37.7402
  0
LINE
  8
0
 10
2.43861
 20
37.7402
 11
1.2252
 21
37.5602
  0
LINE
  8
0
 10
1.2252
 20
37.5602
 11
0
 21
37.5
  0
LINE
  8
0
 10
0
 20
37.5
 11
0
 21
8.83882
  0
LINE
  8
0
 10
0
 20
8.83882
 11
8.83882
 21
0
  0
LINE
  8
0
 10
8.83882
 20
0
 11
241.161
 21
0
  0
LINE
  8
0
 10
241.161
 20
0
 11
250
 21
8.83882
  0
LINE
  8
0
 10
24.902
 20
49.0048
 11
24.8049
 21
49.0192
  0
LINE
  8
0
 10
24.8049
 20
49.0192
 11
24.7097
 21
49.043
  0
LINE
  8
0
 10
24.7097
 20
49.043
 11
24.6173
 21
49.0761
  0
LINE
  8
0
 10
24.6173
 20
49.0761
 11
24.5286
 21
49.1181
  0
LINE
  8
0
 10
24.5286
 20
49.1181
 11
24.4444
 21
49.1685
  0
LINE
  8
0
 10
24.4444
 20
49.1685
 11
24.3656
 21
49.227
  0
LINE
  8
0
 10
24.3656
 20
49.227
 11
24.2929
 21
49.2929
  0
LINE
  8
0
 10
24.2929
 20
49.2929
 11
24.227
 21
49.3656
  0
LINE
  8
0
 10
24.227
 20
49.3656
 11
24.1685
 21
49.4444
  0
LINE
  8
0
 10
24.1685
 20
49.4444
 11
24.1181
 21
49.5286
  0
LINE
  8
0
 10
24.1181
 20
49.5286
 11
24.0761
 21
49.6173
  0
LINE
  8
0
 10
24.0761
 20
49.6173
 11
24.043
 21
49.7097
  0
LINE
  8
0
 10
24.043
 20
49.7097
 11
24.0192
 21
49.8049
  0
LINE
  8
0
 10
24.0192
 20
49.8049
 11
24.0048
 21
49.902
  0
LINE
  8
0
 10
24.0048
 20
49.902
 11
24
 21
50
  0
LINE
  8
0
 10
24
 20
50
 11
24.0048
 21
50.098
  0
LINE
  8
0
 10
24.0048
 20
50.098
 11
24.0192
 21
50.1951
  0
LINE
  8
0
 10
24.0192
 20
50.1951
 11
24.043
 21
50.2903
  0
LINE
  8
0
 10
24.043
 20
50.2903
 11
24.0761
 21
50.3827
  0
LINE
  8
0
 10
24.0761
 20
50.3827
 11
24.1181
 21
50.4714
  0
LINE
  8
0
 10
24.1181
 20
50.4714
 11
24.1685
 21
50.5556
  0
LINE
  8
0
 10
24.1685
 20
50.5556
 11
24.227
 21
50.6344
  0
LINE
  8
0
 10
24.227
 20
50.6344
 11
24.2929
 21
50.7071
  0
LINE
  8
0
 10
24.2929
 20
50.7071
 11
24.3656
 21
50.773
  0
LINE
  8
0
 10
24.3656
 20
50.773
 11
24.4444
 21
50.8315
  0
LINE
  8
0
 10
24.4444
 20
50.8315
 11
24.5286
 21
50.8819
  0
LINE
  8
0
 10
24.5286
 20
50.8819
 11
24.6173
 21
50.9239
  0
LINE
  8
0
 10
24.6173
 20
50.9239
 11
24.7097
 21
50.9569
  0
LINE
  8
0
 10
24.7097
 20
50.9569
 11
24.8049
 21
50.9808
  0
LINE
  8
0
 10
24.8049
 20
50.9808
 11
24.902
 21
50.9952
  0
LINE
  8
0
 10
24.902
 20
50.9952
 11
25
 21
51
  0
LINE
  8
0
 10
25
 20
51
 11
25.098
 21
50.9952
  0
LINE
  8
0
 10
25.098
 20
50.9952
 11
25.1951
 21
50.9808
  0
LINE
  8
0
 10
25.1951
 20
50.9808
 11
25.2903
 21
50.9569
  0
LINE
  8
0
 10
25.2903
 20
50.9569
 11
25.3827
 21
50.9239
  0
LINE
  8
0
 10
25.3827
 20
50.9239
 11
25.4714
 21
50.8819
  0
LINE
  8
0
 10
25.4714
 20
50.8819
 11
25.5556
 21
50.8315
  0
LINE
  8
0
 10
25.5556
 20
50.8315
 11
25.6344
 21
50.773
  0
LINE
  8
0
 10
25.6344
 20
50.773
 11
25.7071
 21
50.7071
  0
LINE
  8
0
 10
25.7071
 20
50.7071
 11
25.773
 21
50.6344
  0
LINE
  8
0
 10
25.773
 20
50.6344
 11
25.8315
 21
50.5556
  0
LINE
  8
0
 10
25.8315
 20
50.5556
 11
25.8819
 21
50.4714
  0
LINE
  8
0
 10
25.8819
 20
50.4714
 11
25.9239
 21
50.3827
  0
LINE
  8
0
 10
25.9239
 20
50.3827
 11
25.9569
 21
50.2903
  0
LINE
  8
0
 10
25.9569
 20
50.2903
 11
25.9808
 21
50.1951
  0
LINE
  8
0
 10
25.9808
 20
50.1951
 11
25.9952
 21
50.098
  0
LINE
  8
0
 10
25.9952
 20
50.098
 11
26
 21
50
  0
LINE
  8
0
 10
26
 20
50
 11
25.9952
 21
49.902
  0
LINE
  8
0
 10
25.9952
 20
49.902
 11
25.9808
 21
49.8049
  0
LINE
  8
0
 10
25.9808
 20
49.8049
 11
25.9569
 21
49.7097
  0
LINE
  8
0
 10
25.9569
 20
49.7097
 11
25.9239
 21
49.6173
  0
LINE
  8
0
 10
25.9239
 20
49.6173
 11
25.8819
 21
49.5286
  0
LINE
  8
0
 10
25.8819
 20
49.5286
 11
25.8315
 21
49.4444
  0
LINE
  8
0
 10
25.8315
 20
49.4444
 11
25.773
 21
49.3656
  0
LINE
  8
0
 10
25.773
 20
49.3656
 11
25.7071
 21
49.2929
  0
LINE
  8
0
 10
25.7071
 20
49.2929
 11
25.6344
 21
49.227
  0
LINE
  8
0
 10
25.6344
 20
49.227
 11
25.5556
 21
49.1685
  0
LINE
  8
0
 10
25.5556
 20
49.1685
 11
25.4714
 21
49.1181
  0
LINE
  8
0
 10
25.4714
 20
49.1181
 11
25.3827
 21
49.0761
  0
LINE
  8
0
 10
25.3827
 20
49.0761
 11
25.2903
 21
49.043
  0
LINE
  8
0
 10
25.2903
 20
49.043
 11
25.1951
 21
49.0192
  0
LINE
  8
0
 10
25.1951
 20
49.0192
 11
25.098
 21
49.0048
  0
LINE
  8
0
 10
25.098
 20
49.0048
 11
25
 21
49
  0
LINE
  8
0
 10
25
 20
49
 11
24.902
 21
49.0048
  0
LINE
  8
0
 10
74.902
 20
49.0048
 11
74.8049
 21
49.0192
  0
LINE
  8
0
 10
74.8049
 20
49.0192
 11
74.7097
 21
49.043
  0
LINE
  8
0
 10
74.7097
 20
49.043
 11
74.6173
 21
49.0761
  0
LINE
  8
0
 10
74.6173
 20
49.0761
 11
74.5286
 21
49.1181
  0
LINE
  8
0
 10
74.5286
 20
49.1181
 11
74.4444
 21
49.1685
  0
LINE
  8
0
 10
74.4444
 20
49.1685
 11
74.3656
 21
49.227
  0
LINE
  8
0
 10
74.3656
 20
49.227
 11
74.2929
 21
49.2929
  0
LINE
  8
0
 10
74.2929
 20
49.2929
 11
74.227
 21
49.3656
  0
LINE
  8
0
 10
74.227
 20
49.3656
 11
74.1685
 21
49.4444
  0
LINE
  8
0
 10
74.1685
 20
49.4444
 11
74.1181
 21
49.5286
  0
LINE
  8
0
 10
74.1181
 20
49.5286
 11
74.0761
 21
49.6173
  0
LINE
  8
0
 10
74.0761
 20
49.6173
 11
74.043
 21
49.7097
  0
LINE
  8
0
 10
74.043
 20
49.7097
 11
74.0192
 21
49.8049
  0
LINE
  8
0
 10
74.0192
 20
49.8049
 11
74.0048
 21
49.902
  0
LINE
  8
0
 10
74.0048
 20
49.902
 11
74
 21
50
  0
LINE
  8
0
 10
74
 20
50
 11
74.0048
 21
50.098
  0
LINE
  8
0
 10
74.0048
 20
50.098
 11
74.0192
 21
50.1951
  0
LINE
  8
0
 10
74.0192
 20
50.1951
 11
74.043
 21
50.2903
  0
LINE
  8
0
 10
74.043
 20
50.2903
 11
74.0761
 21
50.3827
  0
LINE
  8
0
 10
74.0761
 20
50.3827
 11
74.1181
 21
50.4714
  0
LINE
  8
0
 10
74.1181
 20
50.4714
 11
74.1685
 21
50.5556
  0
LINE
  8
0
 10
74.1685
 20
50.5556
 11
74.227
 21
50.6344
  0
LINE
  8
0
 10
74.227
 20
50.6344
 11
74.2929
 21
50.7071
  0
LINE
  8
0
 10
74.2929
 20
50.7071
 11
74.3656
 21
50.773
  0
LINE
  8
0
 10
74.3656
 20
50.773
 11
74.4444
 21
50.8315
  0
LINE
  8
0
 10
74.4444
 20
50.8315
 11
74.5286
 21
50.8819
  0
LINE
  8
0
 10
74.5286
 20
50.8819
 11
74.6173
 21
50.9239
  0
LINE
  8
0
 10
74.6173
 20
50.9239
 11
74.7097
 21
50.9569
  0
LINE
  8
0
 10
74.7097
 20
50.9569
 11
74.8049
 21
50.9808
  0
LINE
  8
0
 10
74.8049
 20
50.9808
 11
74.902
 21
50.9952
  0
LINE
  8
0
 10
74.902
 20
50.9952
 11
75
 21
51
  0
LINE
  8
0
 10
75
 20
51
 11
75.098
 21
50.9952
  0
LINE
  8
0
 10
75.098
 20
50.9952
 11
75.1951
 21
50.9808
  0
LINE
  8
0
 10
75.1951
 20
50.9808
 11
75.2903
 21
50.9569
  0
LINE
  8
0
 10
75.2903
 20
50.9569
 11
75.3827
 21
50.9239
  0
LINE
  8
0
 10
75.3827
 20
50.9239
 11
75.4714
 21
50.8819
  0
LINE
  8
0
 10
75.4714
 20
50.8819
 11
75.5556
 21
50.8315
  0
LINE
  8
0
 10
75.5556
 20
50.8315
 11
75.6344
 21
50.773
  0
LINE
  8
0
 10
75.6344
 20
50.773
 11
75.7071
 21
50.7071
  0
LINE
  8
0
 10
75.7071
 20
50.7071
 11
75.773
 21
50.6344
  0
LINE
  8
0
 10
75.773
 20
50.6344
 11
75.8315
 21
50.5556
  0
LINE
  8
0
 10
75.8315
 20
50.5556
 11
75.8819
 21
50.4714
  0
LINE
  8
0
 10
75.8819
 20
50.4714
 11
75.9239
 21
50.3827
  0
LINE
  8
0
 10
75.9239
 20
50.3827
 11
75.9569
 21
50.2903
  0
LINE
  8
0
 10
75.9569
 20
50.2903
 11
75.9808
 21
50.1951
  0
LINE
  8
0
 10
75.9808
 20
50.1951
 11
75.9952
 21
50.098
  0
LINE
  8
0
 10
75.9952
 20
50.098
 11
76
 21
50
  0
LINE
  8
0
 10
76
 20
50
 11
75.9952
 21
49.902
  0
LINE
  8
0
 10
75.9952
 20
49.902
 11
75.9808
 21
49.8049
  0
LINE
  8
0
 10
75.9808
 20
49.8049
 11
75.9569
 21
49.7097
  0
LINE
  8
0
 10
75.9569
 20
49.7097
 11
75.9239
 21
49.6173
  0
LINE
  8
0
 10
75.9239
 20
49.6173
 11
75.8819
 21
49.5286
  0
LINE
  8
0
 10
75.8819
 20
49.5286
 11
75.8315
 21
49.4444
  0
LINE
  8
0
 10
75.8315
 20
49.4444
 11
75.773
 21
49.3656
  0
LINE
  8
0
 10
75.773
 20
49.3656
 11
75.7071
 21
49.2929
  0
LINE
  8
0
 10
75.7071
 20
49.2929
 11
75.6344
 21
49.227
  0
LINE
  8
0
 10
75.6344
 20
49.227
 11
75.5556
 21
49.1685
  0
LINE
  8
0
 10
75.5556
 20
49.1685
 11
75.4714
 21
49.1181
  0
LINE
  8
0
 10
75.4714
 20
49.1181
 11
75.3827
 21
49.0761
  0
LINE
  8
0
 10
75.3827
 20
49.0761
 11
75.2903
 21
49.043
  0
LINE
  8
0
 10
75.2903
 20
49.043
 11
75.1951
 21
49.0192
  0
LINE
  8
0
 10
75.1951
 20
49.0192
 11
75.098
 21
49.0048
  0
LINE
  8
0
 10
75.098
 20
49.0048
 11
75
 21
49
  0
LINE
  8
0
 10
75
 20
49
 11
74.902
 21
49.0048
  0
LINE
  8
0
 10
124.902
 20
49.0048
 11
124.805
 21
49.0192
  0
LINE
  8
0
 10
124.805
 20
49.0192
 11
124.71
 21
49.043
  0
LINE
  8
0
 10
124.71
 20
49.043
 11
124.617
 21
49.0761
  0
LINE
  8
0
 10
124.617
 20
49.0761
 11
124.529
 21
49.1181
  0
LINE
  8
0
 10
124.529
 20
49.1181
 11
124.444
 21
49.1685
  0
LINE
  8
0
 10
124.444
 20
49.1685
 11
124.366
 21
49.227
  0
LINE
  8
0
 10
124.366
 20
49.227
 11
124.293
 21
49.2929
  0
LINE
  8
0
 10
124.293
 20
49.2929
 11
124.227
 21
49.3656
  0
LINE
  8
0
 10
124.227
 20
49.3656
 11
124.169
 21
49.4444
  0
LINE
  8
0
 10
124.169
 20
49.4444
 11
124.118
 21
49.5286
  0
LINE
  8
0
 10
124.118
 20
49.5286
 11
124.076
 21
49.6173
  0
LINE
  8
0
 10
124.076
 20
49.6173
 11
124.043
 21
49.7097
  0
LINE
  8
0
 10
124.043
 20
49.7097
 11
124.019
 21
49.8049
  0
LINE
  8
0
 10
124.019
 20
49.8049
 11
124.005
 21
49.902
  0
LINE
  8
0
 10
124.005
 20
49.902
 11
124
 21
50
  0
LINE
  8
0
 10
124
 20
50
 11
124.005
 21
50.098
  0
LINE
  8
0
 10
124.005
 20
50.098
 11
124.019
 21
50.1951
  0
LINE
  8
0
 10
124.019
 20
50.1951
 11
124.043
 21
50.2903
  0
LINE
  8
0
 10
124.043
 20
50.2903
 11
124.076
 21
50.3827
  0
LINE
  8
0
 10
124.076
 20
50.3827
 11
124.118
 21
50.4714
  0
LINE
  8
0
 10
124.118
 20
50.4714
 11
124.169
 21
50.5556
  0
LINE
  8
0
 10
124.169
 20
50.5556
 11
124.227
 21
50.6344
  0
LINE
  8
0
 10
124.227
 20
50.6344
 11
124.293
 21
50.7071
  0
LINE
  8
0
 10
124.293
 20
50.7071
 11
124.366
 21
50.773
  0
LINE
  8
0
 10
124.366
 20
50.773
 11
124.444
 21
50.8315
  0
LINE
  8
0
 10
124.444
 20
50.8315
 11
124.529
 21
50.8819
  0
LINE
  8
0
 10
124.529
 20
50.8819
 11
124.617
 21
50.9239
  0
LINE
  8
0
 10
124.617
 20
50.9239
 11
124.71
 21
50.9569
  0
LINE
  8
0
 10
124.71
 20
50.9569
 11
124.805
 21
50.9808
  0
LINE
  8
0
 10
124.805
 20
50.9808
 11
124.902
 21
50.9952
  0
LINE
  8
0
 10
124.902
 20
50.9952
 11
125
 21
51
  0
LINE
  8
0
 10
125
 20
51
 11
125.098
 21
50.9952
  0
LINE
  8
0
 10
125.098
 20
50.9952
 11
125.195
 21
50.9808
  0
LINE
  8
0
 10
125.195
 20
50.9808
 11
125.29
 21
50.9569
  0
LINE
  8
0
 10
125.29
 20
50.9569
 11
125.383
 21
50.9239
  0
LINE
  8
0
 10
125.383
 20
50.9239
 11
125.471
 21
50.8819
  0
LINE
  8
0
 10
125.471
 20
50.8819
 11
125.556
 21
50.8315
  0
LINE
  8
0
 10
125.556
 20
50.8315
 11
125.634
 21
50.773
  0
LINE
  8
0
 10
125.634
 20
50.773
 11
125.707
 21
50.7071
  0
LINE
  8
0
 10
125.707
 20
50.7071
 11
125.773
 21
50.6344
  0
LINE
  8
0
 10
125.773
 20
50.6344
 11
125.831
 21
50.5556
  0
LINE
  8
0
 10
125.831
 20
50.5556
 11
125.882
 21
50.4714
  0
LINE
  8
0
 10
125.882
 20
50.4714
 11
125.924
 21
50.3827
  0
LINE
  8
0
 10
125.924
 20
50.3827
 11
125.957
 21
50.2903
  0
LINE
  8
0
 10
125.957
 20
50.2903
 11
125.981
 21
50.1951
  0
LINE
  8
0
 10
125.981
 20
50.1951
 11
125.995
 21
50.098
  0
LINE
  8
0
 10
125.995
 20
50.098
 11
126
 21
50
  0
LINE
  8
0
 10
126
 20
50
 11
125.995
 21
49.902
  0
LINE
  8
0
 10
125.995
 20
49.902
 11
125.981
 21
49.8049
  0
LINE
  8
0
 10
125.981
 20
49.8049
 11
125.957
 21
49.7097
  0
LINE
  8
0
 10
125.957
 20
49.7097
 11
125.924
 21
49.6173
  0
LINE
  8
0
 10
125.924
 20
49.6173
 11
125.882
 21
49.5286
  0
LINE
  8
0
 10
125.882
 20
49.5286
 11
125.831
 21
49.4444
  0
LINE
  8
0
 10
125.831
 20
49.4444
 11
125.773
 21
49.3656
  0
LINE
  8
0
 10
125.773
 20
49.3656
 11
125.707
 21
49.2929
  0
LINE
  8
0
 10
125.707
 20
49.2929
 11
125.634
 21
49.227
  0
LINE
  8
0
 10
125.634
 20
49.227
 11
125.556
 21
49.1685
  0
LINE
  8
0
 10
125.556
 20
49.1685
 11
125.471
 21
49.1181
  0
LINE
  8
0
 10
125.471
 20
49.1181
 11
125.383
 21
49.0761
  0
LINE
  8
0
 10
125.383
 20
49.0761
 11
125.29
 21
49.043
  0
LINE
  8
0
 10
125.29
 20
49.043
 11
125.195
 21
49.0192
  0
LINE
  8
0
 10
125.195
 20
49.0192
 11
125.098
 21
49.0048
  0
LINE
  8
0
 10
125.098
 20
49.0048
 11
125
 21
49
  0
LINE
  8
0
 10
125
 20
49
 11
124.902
 21
49.0048
  0
LINE
  8
0
 10
174.902
 20
49.0048
 11
174.805
 21
49.0192
  0
LINE
  8
0
 10
174.805
 20
49.0192
 11
174.71
 21
49.043
  0
LINE
  8
0
 10
174.71
 20
49.043
 11
174.617
 21
49.0761
  0
LINE
  8
0
 10
174.617
 20
49.0761
 11
174.529
 21
49.1181
  0
LINE
  8
0
 10
174.529
 20
49.1181
 11
174.444
 21
49.1685
  0
LINE
  8
0
 10
174.444
 20
49.1685
 11
174.366
 21
49.227
  0
LINE
  8
0
 10
174.366
 20
49.227
 11
174.293
 21
49.2929
  0
LINE
  8
0
 10
174.293
 20
49.2929
 11
174.227
 21
49.3656
  0
LINE
  8
0
 10
174.227
 20
49.3656
 11
174.169
 21
49.4444
  0
LINE
  8
0
 10
174.169
 20
49.4444
 11
174.118
 21
49.5286
  0
LINE
  8
0
 10
174.118
 20
49.5286
 11
174.076
 21
49.6173
  0
LINE
  8
0
 10
174.076
 20
49.6173
 11
174.043
 21
49.7097
  0
LINE
  8
0
 10
174.043
 20
49.7097
 11
174.019
 21
49.8049
  0
LINE
  8
0
 10
174.019
 20
49.8049
 11
174.005
 21
49.902
  0
LINE
  8
0
 10
174.005
 20
49.902
 11
174
 21
50
  0
LINE
  8
0
 10
174
 20
50
 11
174.005
 21
50.098
  0
LINE
  8
0
 10
174.005
 20
50.098
 11
174.019
 21
50.1951
  0
LINE
  8
0
 10
174.019
 20
50.1951
 11
174.043
 21
50.2903
  0
LINE
  8
0
 10
174.043
 20
50.2903
 11
174.076
 21
50.3827
  0
LINE
  8
0
 10
174.076
 20
50.3827
 11
174.118
 21
50.4714
  0
LINE
  8
0
 10
174.118
 20
50.4714
 11
174.169
 21
50.5556
  0
LINE
  8
0
 10
174.169
 20
50.5556
 11
174.227
 21
50.6344
  0
LINE
  8
0
 10
174.227
 20
50.6344
 11
174.293
 21
50.7071
  0
LINE
  8
0
 10
174.293
 20
50.7071
 11
174.366
 21
50.773
  0
LINE
  8
0
 10
174.366
 20
50.773
 11
174.444
 21
50.8315
  0
LINE
  8
0
 10
174.444
 20
50.8315
 11
174.529
 21
50.8819
  0
LINE
  8
0
 10
174.529
 20
50.8819
 11
174.617
 21
50.9239
  0
LINE
  8
0
 10
174.617
 20
50.9239
 11
174.71
 21
50.9569
  0
LINE
  8
0
 10
174.71
 20
50.9569
 11
174.805
 21
50.9808
  0
LINE
  8
0
 10
174.805
 20
50.9808
 11
174.902
 21
50.9952
  0
LINE
  8
0
 10
174.902
 20
50.9952
 11
175
 21
51
  0
LINE
  8
0
 10
175
 20
51
 11
175.098
 21
50.9952
  0
LINE
  8
0
 10
175.098
 20
50.9952
 11
175.195
 21
50.9808
  0
LINE
  8
0
 10
175.195
 20
50.9808
 11
175.29
 21
50.9569
  0
LINE
  8
0
 10
175.29
 20
50.9569
 11
175.383
 21
50.9239
  0
LINE
  8
0
 10
175.383
 20
50.9239
 11
175.471
 21
50.8819
  0
LINE
  8
0
 10
175.471
 20
50.8819
 11
175.556
 21
50.8315
  0
LINE
  8
0
 10
175.556
 20
50.8315
 11
175.634
 21
50.773
  0
LINE
  8
0
 10
175.634
 20
50.773
 11
175.707
 21
50.7071
  0
LINE
  8
0
 10
175.707
 20
50.7071
 11
175.773
 21
50.6344
  0
LINE
  8
0
 10
175.773
 20
50.6344
 11
175.831
 21
50.5556
  0
LINE
  8
0
 10
175.831
 20
50.5556
 11
175.882
 21
50.4714
  0
LINE
  8
0
 10
175.882
 20
50.4714
 11
175.924
 21
50.3827
  0
LINE
  8
0
 10
175.924
 20
50.3827
 11
175.957
 21
50.2903
  0
LINE
  8
0
 10
175.957
 20
50.2903
 11
175.981
 21
50.1951
  0
LINE
  8
0
 10
175.981
 20
50.1951
 11
175.995
 21
50.098
  0
LINE
  8
0
 10
175.995
 20
50.098
 11
176
 21
50
  0
LINE
  8
0
 10
176
 20
50
 11
175.995
 21
49.902
  0
LINE
  8
0
 10
175.995
 20
49.902
 11
175.981
 21
49.8049
  0
LINE
  8
0
 10
175.981
 20
49.8049
 11
175.957
 21
49.7097
  0
LINE
  8
0
 10
175.957
 20
49.7097
 11
175.924
 21
49.6173
  0
LINE
  8
0
 10
175.924
 20
49.6173
 11
175.882
 21
49.5286
  0
LINE
  8
0
 10
175.882
 20
49.5286
 11
175.831
 21
49.4444
  0
LINE
  8
0
 10
175.831
 20
49.4444
 11
175.773
 21
49.3656
  0
LINE
  8
0
 10
175.773
 20
49.3656
 11
175.707
 21
49.2929
  0
LINE
  8
0
 10
175.707
 20
49.2929
 11
175.634
 21
49.227
  0
LINE
  8
0
 10
175.634
 20
49.227
 11
175.556
 21
49.1685
  0
LINE
  8
0
 10
175.556
 20
49.1685
 11
175.471
 21
49.1181
  0
LINE
  8
0
 10
175.471
 20
49.1181
 11
175.383
 21
49.0761
  0
LINE
  8
0
 10
175.383
 20
49.0761
 11
175.29
 21
49.043
  0
LINE
  8
0
 10
175.29
 20
49.043
 11
175.195
 21
49.0192
  0
LINE
  8
0
 10
175.195
 20
49.0192
 11
175.098
 21
49.0048
  0
LINE
  8
0
 10
175.098
 20
49.0048
 11
175
 21
49
  0
LINE
  8
0
 10
175
 20
49
 11
174.902
 21
49.0048
  0
LINE
  8
0
 10
224.902
 20
49.0048
 11
224.805
 21
49.0192
  0
LINE
  8
0
 10
224.805
 20
49.0192
 11
224.71
 21
49.043
  0
LINE
  8
0
 10
224.71
 20
49.043
 11
224.617
 21
49.0761
  0
LINE
  8
0
 10
224.617
 20
49.0761
 11
224.529
 21
49.1181
  0
LINE
  8
0
 10
224.529
 20
49.1181
 11
224.444
 21
49.1685
  0
LINE
  8
0
 10
224.444
 20
49.1685
 11
224.366
 21
49.227
  0
LINE
  8
0
 10
224.366
 20
49.227
 11
224.293
 21
49.2929
  0
LINE
  8
0
 10
224.293
 20
49.2929
 11
224.227
 21
49.3656
  0
LINE
  8
0
 10
224.227
 20
49.3656
 11
224.169
 21
49.4444
  0
LINE
  8
0
 10
224.169
 20
49.4444
 11
224.118
 21
49.5286
  0
LINE
  8
0
 10
224.118
 20
49.5286
 11
224.076
 21
49.6173
  0
LINE
  8
0
 10
224.076
 20
49.6173
 11
224.043
 21
49.7097
  0
LINE
  8
0
 10
224.043
 20
49.7097
 11
224.019
 21
49.8049
  0
LINE
  8
0
 10
224.019
 20
49.8049
 11
224.005
 21
49.902
  0
LINE
  8
0
 10
224.005
 20
49.902
 11
224
 21
50
  0
LINE
  8
0
 10
224
 20
50
 11
224.005
 21
50.098
  0
LINE
  8
0
 10
224.005
 20
50.098
 11
224.019
 21
50.1951
  0
LINE
  8
0
 10
224.019
 20
50.1951
 11
224.043
 21
50.2903
  0
LINE
  8
0
 10
224.043
 20
50.2903
 11
224.076
 21
50.3827
  0
LINE
  8
0
 10
224.076
 20
50.3827
 11
224.118
 21
50.4714
  0
LINE
  8
0
 10
224.118
 20
50.4714
 11
224.169
 21
50.5556
  0
LINE
  8
0
 10
224.169
 20
50.5556
 11
224.227
 21
50.6344
  0
LINE
  8
0
 10
224.227
 20
50.6344
 11
224.293
 21
50.7071
  0
LINE
  8
0
 10
224.293
 20
50.7071
 11
224.366
 21
50.773
  0
LINE
  8
0
 10
224.366
 20
50.773
 11
224.444
 21
50.8315
  0
LINE
  8
0
 10
224.444
 20
50.8315
 11
224.529
 21
50.8819
  0
LINE
  8
0
 10
224.529
 20
50.8819
 11
224.617
 21
50.9239
  0
LINE
  8
0
 10
224.617
 20
50.9239
 11
224.71
 21
50.9569
  0
LINE
  8
0
 10
224.71
 20
50.9569
 11
224.805
 21
50.9808
  0
LINE
  8
0
 10
224.805
 20
50.9808
 11
224.902
 21
50.9952
  0
LINE
  8
0
 10
224.902
 20
50.9952
 11
225
 21
51
  0
LINE
  8
0
 10
225
 20
51
 11
225.098
 21
50.9952
  0
LINE
  8
0
 10
225.098
 20
50.9952
 11
225.195
 21
50.9808
  0
LINE
  8
0
 10
225.195
 20
50.9808
 11
225.29
 21
50.9569
  0
LINE
  8
0
 10
225.29
 20
50.9569
 11
225.383
 21
50.9239
  0
LINE
  8
0
 10
225.383
 20
50.9239
 11
225.471
 21
50.8819
  0
LINE
  8
0
 10
225.471
 20
50.8819
 11
225.556
 21
50.8315
  0
LINE
  8
0
 10
225.556
 20
50.8315
 11
225.634
 21
50.773
  0
LINE
  8
0
 10
225.634
 20
50.773
 11
225.707
 21
50.7071
  0
LINE
  8
0
 10
225.707
 20
50.7071
 11
225.773
 21
50.6344
  0
LINE
  8
0
 10
225.773
 20
50.6344
 11
225.831
 21
50.5556
  0
LINE
  8
0
 10
225.831
 20
50.5556
 11
225.882
 21
50.4714
  0
LINE
  8
0
 10
225.882
 20
50.4714
 11
225.924
 21
50.3827
  0
LINE
  8
0
 10
225.924
 20
50.3827
 11
225.957
 21
50.2903
  0
LINE
  8
0
 10
225.957
 20
50.2903
 11
225.981
 21
50.1951
  0
LINE
  8
0
 10
225.981
 20
50.1951
 11
225.995
 21
50.098
  0
LINE
  8
0
 10
225.995
 20
50.098
 11
226
 21
50
  0
LINE
  8
0
 10
226
 20
50
 11
225.995
 21
49.902
  0
LINE
  8
0
 10
225.995
 20
49.902
 11
225.981
 21
49.8049
  0
LINE
  8
0
 10
225.981
 20
49.8049
 11
225.957
 21
49.7097
  0
LINE
  8
0
 10
225.957
 20
49.7097
 11
225.924
 21
49.6173
  0
LINE
  8
0
 10
225.924
 20
49.6173
 11
225.882
 21
49.5286
  0
LINE
  8
0
 10
225.882
 20
49.5286
 11
225.831
 21
49.4444
  0
LINE
  8
0
 10
225.831
 20
49.4444
 11
225.773
 21
49.3656
  0
LINE
  8
0
 10
225.773
 20
49.3656
 11
225.707
 21
49.2929
  0
LINE
  8
0
 10
225.707
 20
49.2929
 11
225.634
 21
49.227
  0
LINE
  8
0
 10
225.634
 20
49.227
 11
225.556
 21
49.1685
  0
LINE
  8
0
 10
225.556
 20
49.1685
 11
225.471
 21
49.1181
  0
LINE
  8
0
 10
225.471
 20
49.1181
 11
225.383
 21
49.0761
  0
LINE
  8
0
 10
225.383
 20
49.0761
 11
225.29
 21
49.043
  0
LINE
  8
0
 10
225.29
 20
49.043
 11
225.195
 21
49.0192
  0
LINE
  8
0
 10
225.195
 20
49.0192
 11
225.098
 21
49.0048
  0
LINE
  8
0
 10
225.098
 20
49.0048
 11
225
 21
49
  0
LINE
  8
0
 10
225
 20
49
 11
224.902
 21
49.0048
  0
ENDSEC
  0
SECTION
  2
OBJECTS
  0
DICTIONARY
  0
ENDSEC
  0
EOF
