<?xml version="1.0" standalone="no"?>
<!DOCTYPE svg PUBLIC "-//W3C//DTD SVG 1.1//EN" "http://www.w3.org/Graphics/SVG/1.1/DTD/svg11.dtd">
<svg width="250mm" height="100mm" viewBox="0 -100 250 100" xmlns="http://www.w3.org/2000/svg" version="1.1">
<title>OpenSCAD Model</title>
<path d="
M 250,-8.83882 L 250,-37.5 L 248.775,-37.5602 L 247.561,-37.7402 L 246.371,-38.0382 L 245.216,-38.4515
 L 244.108,-38.976 L 243.055,-39.6066 L 242.07,-40.3374 L 241.161,-41.1612 L 240.337,-42.0701 L 239.607,-43.0554
 L 238.976,-44.1075 L 238.451,-45.2164 L 238.038,-46.3714 L 237.74,-47.5614 L 237.56,-48.7748 L 237.5,-50
 L 237.56,-51.2252 L 237.74,-52.4386 L 238.038,-53.6286 L 238.451,-54.7835 L 238.976,-55.8925 L 239.607,-56.9446
 L 240.337,-57.9299 L 241.161,-58.8388 L 242.07,-59.6626 L 243.055,-60.3934 L 244.108,-61.024 L 245.216,-61.5485
 L 246.371,-61.9617 L 247.561,-62.2598 L 248.775,-62.4398 L 250,-62.5 L 250,-91.1612 L 241.161,-100
 L 8.83882,-100 L 0,-91.1612 L 0,-62.5 L 1.2252,-62.4398 L 2.43861,-62.2598 L 3.62856,-61.9617
 L 4.78354,-61.5485 L 5.89246,-61.024 L 6.94463,-60.3934 L 7.9299,-59.6626 L 8.83882,-58.8388 L 9.66263,-57.9299
 L 10.3934,-56.9446 L 11.024,-55.8925 L 11.5485,-54.7835 L 11.9617,-53.6286 L 12.2598,-52.4386 L 12.4398,-51.2252
 L 12.5,-50 L 12.4398,-48.7748 L 12.2598,-47.5614 L 11.9617,-46.3714 L 11.5485,-45.2164 L 11.024,-44.1075
 L 10.3934,-43.0554 L 9.66263,-42.0701 L 8.83882,-41.1612 L 7.9299,-40.3374 L 6.94463,-39.6066 L 5.89246,-38.976
 L 4.78354,-38.4515 L 3.62856,-38.0382 L 2.43861,-37.7402 L 1.2252,-37.5602 L 0,-37.5 L 0,-8.83882
 L 8.83882,-0 L 241.161,-0 z
M 24.902,-49.0048 L 24.8049,-49.0192 L 24.7097,-49.043 L 24.6173,-49.0761 L 24.5286,-49.1181 L 24.4444,-49.1685
 L 24.3656,-49.227 L 24.2929,-49.2929 L 24.227,-49.3656 L 24.1685,-49.4444 L 24.1181,-49.5286 L 24.0761,-49.6173
 L 24.043,-49.7097 L 24.0192,-49.8049 L 24.0048,-49.902 L 24,-50 L 24.0048,-50.098 L 24.0192,-50.1951
 L 24.043,-50.2903 L 24.0761,-50.3827 L 24.1181,-50.4714 L 24.1685,-50.5556 L 24.227,-50.6344 L 24.2929,-50.7071
 L 24.3656,-50.773 L 24.4444,-50.8315 L 24.5286,-50.8819 L 24.6173,-50.9239 L 24.7097,-50.9569 L 24.8049,-50.9808
 L 24.902,-50.9952 L 25,-51 L 25.098,-50.9952 L 25.1951,-50.9808 L 25.2903,-50.9569 L 25.3827,-50.9239
 L 25.4714,-50.8819 L 25.5556,-50.8315 L 25.6344,-50.773 L 25.7071,-50.7071 L 25.773,-50.6344 L 25.8315,-50.5556
 L 25.8819,-50.4714 L 25.9239,-50.3827 L 25.9569,-50.2903 L 25.9808,-50.1951 L 25.9952,-50.098 L 26,-50
 L 25.9952,-49.902 L 25.9808,-49.8049 L 25.9569,-49.7097 L 25.9239,-49.6173 L 25.8819,-49.5286 L 25.8315,-49.4444
 L 25.773,-49.3656 L 25.7071,-49.2929 L 25.6344,-49.227 L 25.5556,-49.1685 L 25.4714,-49.1181 L 25.3827,-49.0761
 L 25.2903,-49.043 L 25.1951,-49.0192 L 25.098,-49.0048 L 25,-49 z
M 74.902,-49.0048 L 74.8049,-49.0192 L 74.7097,-49.043 L 74.6173,-49.0761 L 74.5286,-49.1181 L 74.4444,-49.1685
 L 74.3656,-49.227 L 74.2929,-49.2929 L 74.227,-49.3656 L 74.1685,-49.4444 L 74.1181,-49.5286 L 74.0761,-49.6173
 L 74.043,-49.7097 L 74.0192,-49.8049 L 74.0048,-49.902 L 74,-50 L 74.0048,-50.098 L 74.0192,-50.1951
 L 74.043,-50.2903 L 74.0761,-50.3827 L 74.1181,-50.4714 L 74.1685,-50.5556 L 74.227,-50.6344 L 74.2929,-50.7071
 L 74.3656,-50.773 L 74.4444,-50.8315 L 74.5286,-50.8819 L 74.6173,-50.9239 L 74.7097,-50.9569 L 74.8049,-50.9808
 L 74.902,-50.9952 L 75,-51 L 75.098,-50.9952 L 75.1951,-50.9808 L 75.2903,-50.9569 L 75.3827,-50.9239
 L 75.4714,-50.8819 L 75.5556,-50.8315 L 75.6344,-50.773 L 75.7071,-50.7071 L 75.773,-50.6344 L 75.8315,-50.5556
 L 75.8819,-50.4714 L 75.9239,-50.3827 L 75.9569,-50.2903 L 75.9808,-50.1951 L 75.9952,-50.098 L 76,-50
 L 75.9952,-49.902 L 75.9808,-49.8049 L 75.9569,-49.7097 L 75.9239,-49.6173 L 75.8819,-49.5286 L 75.8315,-49.4444
 L 75.773,-49.3656 L 75.7071,-49.2929 L 75.6344,-49.227 L 75.5556,-49.1685 L 75.4714,-49.1181 L 75.3827,-49.0761
 L 75.2903,-49.043 L 75.1951,-49.0192 L 75.098,-49.0048 L 75,-49 z
M 124.902,-49.0048 L 124.805,-49.0192 L 124.71,-49.043 L 124.617,-49.0761 L 124.529,-49.1181 L 124.444,-49.1685
 L 124.366,-49.227 L 124.293,-49.2929 L 124.227,-49.3656 L 124.169,-49.4444 L 124.118,-49.5286 L 124.076,-49.6173
 L 124.043,-49.7097 L 124.019,-49.8049 L 124.005,-49.902 L 124,-50 L 124.005,-50.098 L 124.019,-50.1951
 L 124.043,-50.2903 L 124.076,-50.3827 L 124.118,-50.4714 L 124.169,-50.5556 L 124.227,-50.6344 L 124.293,-50.7071
 L 124.366,-50.773 L 124.444,-50.8315 L 124.529,-50.8819 L 124.617,-50.9239 L 124.71,-50.9569 L 124.805,-50.9808
 L 124.902,-50.9952 L 125,-51 L 125.098,-50.9952 L 125.195,-50.9808 L 125.29,-50.9569 L 125.383,-50.9239
 L 125.471,-50.8819 L 125.556,-50.8315 L 125.634,-50.773 L 125.707,-50.7071 L 125.773,-50.6344 L 125.831,-50.5556
 L 125.882,-50.4714 L 125.924,-50.3827 L 125.957,-50.2903 L 125.981,-50.1951 L 125.995,-50.098 L 126,-50
 L 125.995,-49.902 L 125.981,-49.8049 L 125.957,-49.7097 L 125.924,-49.6173 L 125.882,-49.5286 L 125.831,-49.4444
 L 125.773,-49.3656 L 125.707,-49.2929 L 125.634,-49.227 L 125.556,-49.1685 L 125.471,-49.1181 L 125.383,-49.0761
 L 125.29,-49.043 L 125.195,-49.0192 L 125.098,-49.0048 L 125,-49 z
M 174.902,-49.0048 L 174.805,-49.0192 L 174.71,-49.043 L 174.617,-49.0761 L 174.529,-49.1181 L 174.444,-49.1685
 L 174.366,-49.227 L 174.293,-49.2929 L 174.227,-49.3656 L 174.169,-49.4444 L 174.118,-49.5286 L 174.076,-49.6173
 L 174.043,-49.7097 L 174.019,-49.8049 L 174.005,-49.902 L 174,-50 L 174.005,-50.098 L 174.019,-50.1951
 L 174.043,-50.2903 L 174.076,-50.3827 L 174.118,-50.4714 L 174.169,-50.5556 L 174.227,-50.6344 L 174.293,-50.7071
 L 174.366,-50.773 L 174.444,-50.8315 L 174.529,-50.8819 L 174.617,-50.9239 L 174.71,-50.9569 L 174.805,-50.9808
 L 174.902,-50.9952 L 175,-51 L 175.098,-50.9952 L 175.195,-50.9808 L 175.29,-50.9569 L 175.383,-50.9239
 L 175.471,-50.8819 L 175.556,-50.8315 L 175.634,-50.773 L 175.707,-50.7071 L 175.773,-50.6344 L 175.831,-50.5556
 L 175.882,-50.4714 L 175.924,-50.3827 L 175.957,-50.2903 L 175.981,-50.1951 L 175.995,-50.098 L 176,-50
 L 175.995,-49.902 L 175.981,-49.8049 L 175.957,-49.7097 L 175.924,-49.6173 L 175.882,-49.5286 L 175.831,-49.4444
 L 175.773,-49.3656 L 175.707,-49.2929 L 175.634,-49.227 L 175.556,-49.1685 L 175.471,-49.1181 L 175.383,-49.0761
 L 175.29,-49.043 L 175.195,-49.0192 L 175.098,-49.0048 L 175,-49 z
M 224.902,-49.0048 L 224.805,-49.0192 L 224.71,-49.043 L 224.617,-49.0761 L 224.529,-49.1181 L 224.444,-49.1685
 L 224.366,-49.227 L 224.293,-49.2929 L 224.227,-49.3656 L 224.169,-49.4444 L 224.118,-49.5286 L 224.076,-49.6173
 L 224.043,-49.7097 L 224.019,-49.8049 L 224.005,-49.902 L 224,-50 L 224.005,-50.098 L 224.019,-50.1951
 L 224.043,-50.2903 L 224.076,-50.3827 L 224.118,-50.4714 L 224.169,-50.5556 L 224.227,-50.6344 L 224.293,-50.7071
 L 224.366,-50.773 L 224.444,-50.8315 L 224.529,-50.8819 L 224.617,-50.9239 L 224.71,-50.9569 L 224.805,-50.9808
 L 224.902,-50.9952 L 225,-51 L 225.098,-50.9952 L 225.195,-50.9808 L 225.29,-50.9569 L 225.383,-50.9239
 L 225.471,-50.8819 L 225.556,-50.8315 L 225.634,-50.773 L 225.707,-50.7071 L 225.773,-50.6344 L 225.831,-50.5556
 L 225.882,-50.4714 L 225.924,-50.3827 L 225.957,-50.2903 L 225.981,-50.1951 L 225.995,-50.098 L 226,-50
 L 225.995,-49.902 L 225.981,-49.8049 L 225.957,-49.7097 L 225.924,-49.6173 L 225.882,-49.5286 L 225.831,-49.4444
 L 225.773,-49.3656 L 225.707,-49.2929 L 225.634,-49.227 L 225.556,-49.1685 L 225.471,-49.1181 L 225.383,-49.0761
 L 225.29,-49.043 L 225.195,-49.0192 L 225.098,-49.0048 L 225,-49 z
" stroke="black" fill="lightgray" stroke-width="0.5"/>
</svg>
