  0
SECTION
  2
BLOCKS
  0
ENDSEC
  0
SECTION
  2
ENTITIES
  0
LINE
  8
0
 10
250
 20
8.83882
 11
250
 21
37.5
  0
LINE
  8
0
 10
250
 20
37.5
 11
248.775
 21
37.5602
  0
LINE
  8
0
 10
248.775
 20
37.5602
 11
247.561
 21
37.7402
  0
LINE
  8
0
 10
247.561
 20
37.7402
 11
246.371
 21
38.0382
  0
LINE
  8
0
 10
246.371
 20
38.0382
 11
245.216
 21
38.4515
  0
LINE
  8
0
 10
245.216
 20
38.4515
 11
244.108
 21
38.976
  0
LINE
  8
0
 10
244.108
 20
38.976
 11
243.055
 21
39.6066
  0
LINE
  8
0
 10
243.055
 20
39.6066
 11
242.07
 21
40.3374
  0
LINE
  8
0
 10
242.07
 20
40.3374
 11
241.161
 21
41.1612
  0
LINE
  8
0
 10
241.161
 20
41.1612
 11
240.337
 21
42.0701
  0
LINE
  8
0
 10
240.337
 20
42.0701
 11
239.607
 21
43.0554
  0
LINE
  8
0
 10
239.607
 20
43.0554
 11
238.976
 21
44.1075
  0
LINE
  8
0
 10
238.976
 20
44.1075
 11
238.451
 21
45.2164
  0
LINE
  8
0
 10
238.451
 20
45.2164
 11
238.038
 21
46.3714
  0
LINE
  8
0
 10
238.038
 20
46.3714
 11
237.74
 21
47.5614
  0
LINE
  8
0
 10
237.74
 20
47.5614
 11
237.56
 21
48.7748
  0
LINE
  8
0
 10
237.56
 20
48.7748
 11
237.5
 21
50
  0
LINE
  8
0
 10
237.5
 20
50
 11
237.56
 21
51.2252
  0
LINE
  8
0
 10
237.56
 20
51.2252
 11
237.74
 21
52.4386
  0
LINE
  8
0
 10
237.74
 20
52.4386
 11
238.038
 21
53.6286
  0
LINE
  8
0
 10
238.038
 20
53.6286
 11
238.451
 21
54.7835
  0
LINE
  8
0
 10
238.451
 20
54.7835
 11
238.976
 21
55.8925
  0
LINE
  8
0
 10
238.976
 20
55.8925
 11
239.607
 21
56.9446
  0
LINE
  8
0
 10
239.607
 20
56.9446
 11
240.337
 21
57.9299
  0
LINE
  8
0
 10
240.337
 20
57.9299
 11
241.161
 21
58.8388
  0
LINE
  8
0
 10
241.161
 20
58.8388
 11
242.07
 21
59.6626
  0
LINE
  8
0
 10
242.07
 20
59.6626
 11
243.055
 21
60.3934
  0
LINE
  8
0
 10
243.055
 20
60.3934
 11
244.108
 21
61.024
  0
LINE
  8
0
 10
244.108
 20
61.024
 11
245.216
 21
61.5485
  0
LINE
  8
0
 10
245.216
 20
61.5485
 11
246.371
 21
61.9617
  0
LINE
  8
0
 10
246.371
 20
61.9617
 11
247.561
 21
62.2598
  0
LINE
  8
0
 10
247.561
 20
62.2598
 11
248.775
 21
62.4398
  0
LINE
  8
0
 10
248.775
 20
62.4398
 11
250
 21
62.5
  0
LINE
  8
0
 10
250
 20
62.5
 11
250
 21
91.1612
  0
LINE
  8
0
 10
250
 20
91.1612
 11
241.161
 21
100
  0
LINE
  8
0
 10
241.161
 20
100
 11
8.83882
 21
100
  0
LINE
  8
0
 10
8.83882
 20
100
 11
0
 21
91.1612
  0
LINE
  8
0
 10
0
 20
91.1612
 11
0
 21
62.5
  0
LINE
  8
0
 10
0
 20
62.5
 11
1.2252
 21
62.4398
  0
LINE
  8
0
 10
1.2252
 20
62.4398
 11
2.43861
 21
62.2598
  0
LINE
  8
0
 10
2.43861
 20
62.2598
 11
3.62856
 21
61.9617
  0
LINE
  8
0
 10
3.62856
 20
61.9617
 11
4.78354
 21
61.5485
  0
LINE
  8
0
 10
4.78354
 20
61.5485
 11
5.89246
 21
61.024
  0
LINE
  8
0
 10
5.89246
 20
61.024
 11
6.94463
 21
60.3934
  0
LINE
  8
0
 10
6.94463
 20
60.3934
 11
7.9299
 21
59.6626
  0
LINE
  8
0
 10
7.9299
 20
59.6626
 11
8.83882
 21
58.8388
  0
LINE
  8
0
 10
8.83882
 20
58.8388
 11
9.66263
 21
57.9299
  0
LINE
  8
0
 10
9.66263
 20
57.9299
 11
10.3934
 21
56.9446
  0
LINE
  8
0
 10
10.3934
 20
56.9446
 11
11.024
 21
55.8925
  0
LINE
  8
0
 10
11.024
 20
55.8925
 11
11.5485
 21
54.7835
  0
LINE
  8
0
 10
11.5485
 20
54.7835
 11
11.9617
 21
53.6286
  0
LINE
  8
0
 10
11.9617
 20
53.6286
 11
12.2598
 21
52.4386
  0
LINE
  8
0
 10
12.2598
 20
52.4386
 11
12.4398
 21
51.2252
  0
LINE
  8
0
 10
12.4398
 20
51.2252
 11
12.5
 21
50
  0
LINE
  8
0
 10
12.5
 20
50
 11
12.4398
 21
48.7748
  0
LINE
  8
0
 10
12.4398
 20
48.7748
 11
12.2598
 21
47.5614
  0
LINE
  8
0
 10
12.2598
 20
47.5614
 11
11.9617
 21
46.3714
  0
LINE
  8
0
 10
11.9617
 20
46.3714
 11
11.5485
 21
45.2164
  0
LINE
  8
0
 10
11.5485
 20
45.2164
 11
11.024
 21
44.1075
  0
LINE
  8
0
 10
11.024
 20
44.1075
 11
10.3934
 21
43.0554
  0
LINE
  8
0
 10
10.3934
 20
43.0554
 11
9.66263
 21
42.0701
  0
LINE
  8
0
 10
9.66263
 20
42.0701
 11
8.83882
 21
41.1612
  0
LINE
  8
0
 10
8.83882
 20
41.1612
 11
7.9299
 21
40.3374
  0
LINE
  8
0
 10
7.9299
 20
40.3374
 11
6.94463
 21
39.6066
  0
LINE
  8
0
 10
6.94463
 20
39.6066
 11
5.89246
 21
38.976
  0
LINE
  8
0
 10
5.89246
 20
38.976
 11
4.78354
 21
38.4515
  0
LINE
  8
0
 10
4.78354
 20
38.4515
 11
3.62856
 21
38.0382
  0
LINE
  8
0
 10
3.62856
 20
38.0382
 11
2.43861
 21
37.7402
  0
LINE
  8
0
 10
2.43861
 20
37.7402
 11
1.2252
 21
37.5602
  0
LINE
  8
0
 10
1.2252
 20
37.5602
 11
0
 21
37.5
  0
LINE
  8
0
 10
0
 20
37.5
 11
0
 21
8.83882
  0
LINE
  8
0
 10
0
 20
8.83882
 11
8.83882
 21
0
  0
LINE
  8
0
 10
8.83882
 20
0
 11
241.161
 21
0
  0
LINE
  8
0
 10
241.161
 20
0
 11
250
 21
8.83882
  0
LINE
  8
0
 10
24.9191
 20
49.179
 11
24.8391
 21
49.1908
  0
LINE
  8
0
 10
24.8391
 20
49.1908
 11
24.7605
 21
49.2105
  0
LINE
  8
0
 10
24.7605
 20
49.2105
 11
24.6843
 21
49.2378
  0
LINE
  8
0
 10
24.6843
 20
49.2378
 11
24.6111
 21
49.2724
  0
LINE
  8
0
 10
24.6111
 20
49.2724
 11
24.5416
 21
49.314
  0
LINE
  8
0
 10
24.5416
 20
49.314
 11
24.4766
 21
49.3623
  0
LINE
  8
0
 10
24.4766
 20
49.3623
 11
24.4166
 21
49.4166
  0
LINE
  8
0
 10
24.4166
 20
49.4166
 11
24.3623
 21
49.4766
  0
LINE
  8
0
 10
24.3623
 20
49.4766
 11
24.314
 21
49.5416
  0
LINE
  8
0
 10
24.314
 20
49.5416
 11
24.2724
 21
49.6111
  0
LINE
  8
0
 10
24.2724
 20
49.6111
 11
24.2378
 21
49.6843
  0
LINE
  8
0
 10
24.2378
 20
49.6843
 11
24.2105
 21
49.7605
  0
LINE
  8
0
 10
24.2105
 20
49.7605
 11
24.1908
 21
49.8391
  0
LINE
  8
0
 10
24.1908
 20
49.8391
 11
24.179
 21
49.9191
  0
LINE
  8
0
 10
24.179
 20
49.9191
 11
24.175
 21
50
  0
LINE
  8
0
 10
24.175
 20
50
 11
24.179
 21
50.0809
  0
LINE
  8
0
 10
24.179
 20
50.0809
 11
24.1908
 21
50.1609
  0
LINE
  8
0
 10
24.1908
 20
50.1609
 11
24.2105
 21
50.2395
  0
LINE
  8
0
 10
24.2105
 20
50.2395
 11
24.2378
 21
50.3157
  0
LINE
  8
0
 10
24.2378
 20
50.3157
 11
24.2724
 21
50.3889
  0
LINE
  8
0
 10
24.2724
 20
50.3889
 11
24.314
 21
50.4583
  0
LINE
  8
0
 10
24.314
 20
50.4583
 11
24.3623
 21
50.5234
  0
LINE
  8
0
 10
24.3623
 20
50.5234
 11
24.4166
 21
50.5834
  0
LINE
  8
0
 10
24.4166
 20
50.5834
 11
24.4766
 21
50.6377
  0
LINE
  8
0
 10
24.4766
 20
50.6377
 11
24.5416
 21
50.686
  0
LINE
  8
0
 10
24.5416
 20
50.686
 11
24.6111
 21
50.7276
  0
LINE
  8
0
 10
24.6111
 20
50.7276
 11
24.6843
 21
50.7622
  0
LINE
  8
0
 10
24.6843
 20
50.7622
 11
24.7605
 21
50.7895
  0
LINE
  8
0
 10
24.7605
 20
50.7895
 11
24.8391
 21
50.8091
  0
LINE
  8
0
 10
24.8391
 20
50.8091
 11
24.9191
 21
50.821
  0
LINE
  8
0
 10
24.9191
 20
50.821
 11
25
 21
50.825
  0
LINE
  8
0
 10
25
 20
50.825
 11
25.0809
 21
50.821
  0
LINE
  8
0
 10
25.0809
 20
50.821
 11
25.1609
 21
50.8091
  0
LINE
  8
0
 10
25.1609
 20
50.8091
 11
25.2395
 21
50.7895
  0
LINE
  8
0
 10
25.2395
 20
50.7895
 11
25.3157
 21
50.7622
  0
LINE
  8
0
 10
25.3157
 20
50.7622
 11
25.3889
 21
50.7276
  0
LINE
  8
0
 10
25.3889
 20
50.7276
 11
25.4583
 21
50.686
  0
LINE
  8
0
 10
25.4583
 20
50.686
 11
25.5234
 21
50.6377
  0
LINE
  8
0
 10
25.5234
 20
50.6377
 11
25.5834
 21
50.5834
  0
LINE
  8
0
 10
25.5834
 20
50.5834
 11
25.6377
 21
50.5234
  0
LINE
  8
0
 10
25.6377
 20
50.5234
 11
25.686
 21
50.4583
  0
LINE
  8
0
 10
25.686
 20
50.4583
 11
25.7276
 21
50.3889
  0
LINE
  8
0
 10
25.7276
 20
50.3889
 11
25.7622
 21
50.3157
  0
LINE
  8
0
 10
25.7622
 20
50.3157
 11
25.7895
 21
50.2395
  0
LINE
  8
0
 10
25.7895
 20
50.2395
 11
25.8091
 21
50.1609
  0
LINE
  8
0
 10
25.8091
 20
50.1609
 11
25.821
 21
50.0809
  0
LINE
  8
0
 10
25.821
 20
50.0809
 11
25.825
 21
50
  0
LINE
  8
0
 10
25.825
 20
50
 11
25.821
 21
49.9191
  0
LINE
  8
0
 10
25.821
 20
49.9191
 11
25.8091
 21
49.8391
  0
LINE
  8
0
 10
25.8091
 20
49.8391
 11
25.7895
 21
49.7605
  0
LINE
  8
0
 10
25.7895
 20
49.7605
 11
25.7622
 21
49.6843
  0
LINE
  8
0
 10
25.7622
 20
49.6843
 11
25.7276
 21
49.6111
  0
LINE
  8
0
 10
25.7276
 20
49.6111
 11
25.686
 21
49.5416
  0
LINE
  8
0
 10
25.686
 20
49.5416
 11
25.6377
 21
49.4766
  0
LINE
  8
0
 10
25.6377
 20
49.4766
 11
25.5834
 21
49.4166
  0
LINE
  8
0
 10
25.5834
 20
49.4166
 11
25.5234
 21
49.3623
  0
LINE
  8
0
 10
25.5234
 20
49.3623
 11
25.4583
 21
49.314
  0
LINE
  8
0
 10
25.4583
 20
49.314
 11
25.3889
 21
49.2724
  0
LINE
  8
0
 10
25.3889
 20
49.2724
 11
25.3157
 21
49.2378
  0
LINE
  8
0
 10
25.3157
 20
49.2378
 11
25.2395
 21
49.2105
  0
LINE
  8
0
 10
25.2395
 20
49.2105
 11
25.1609
 21
49.1908
  0
LINE
  8
0
 10
25.1609
 20
49.1908
 11
25.0809
 21
49.179
  0
LINE
  8
0
 10
25.0809
 20
49.179
 11
25
 21
49.175
  0
LINE
  8
0
 10
25
 20
49.175
 11
24.9191
 21
49.179
  0
LINE
  8
0
 10
74.9191
 20
49.179
 11
74.8391
 21
49.1908
  0
LINE
  8
0
 10
74.8391
 20
49.1908
 11
74.7605
 21
49.2105
  0
LINE
  8
0
 10
74.7605
 20
49.2105
 11
74.6843
 21
49.2378
  0
LINE
  8
0
 10
74.6843
 20
49.2378
 11
74.6111
 21
49.2724
  0
LINE
  8
0
 10
74.6111
 20
49.2724
 11
74.5416
 21
49.314
  0
LINE
  8
0
 10
74.5416
 20
49.314
 11
74.4766
 21
49.3623
  0
LINE
  8
0
 10
74.4766
 20
49.3623
 11
74.4166
 21
49.4166
  0
LINE
  8
0
 10
74.4166
 20
49.4166
 11
74.3623
 21
49.4766
  0
LINE
  8
0
 10
74.3623
 20
49.4766
 11
74.314
 21
49.5416
  0
LINE
  8
0
 10
74.314
 20
49.5416
 11
74.2724
 21
49.6111
  0
LINE
  8
0
 10
74.2724
 20
49.6111
 11
74.2378
 21
49.6843
  0
LINE
  8
0
 10
74.2378
 20
49.6843
 11
74.2105
 21
49.7605
  0
LINE
  8
0
 10
74.2105
 20
49.7605
 11
74.1908
 21
49.8391
  0
LINE
  8
0
 10
74.1908
 20
49.8391
 11
74.179
 21
49.9191
  0
LINE
  8
0
 10
74.179
 20
49.9191
 11
74.175
 21
50
  0
LINE
  8
0
 10
74.175
 20
50
 11
74.179
 21
50.0809
  0
LINE
  8
0
 10
74.179
 20
50.0809
 11
74.1908
 21
50.1609
  0
LINE
  8
0
 10
74.1908
 20
50.1609
 11
74.2105
 21
50.2395
  0
LINE
  8
0
 10
74.2105
 20
50.2395
 11
74.2378
 21
50.3157
  0
LINE
  8
0
 10
74.2378
 20
50.3157
 11
74.2724
 21
50.3889
  0
LINE
  8
0
 10
74.2724
 20
50.3889
 11
74.314
 21
50.4583
  0
LINE
  8
0
 10
74.314
 20
50.4583
 11
74.3623
 21
50.5234
  0
LINE
  8
0
 10
74.3623
 20
50.5234
 11
74.4166
 21
50.5834
  0
LINE
  8
0
 10
74.4166
 20
50.5834
 11
74.4766
 21
50.6377
  0
LINE
  8
0
 10
74.4766
 20
50.6377
 11
74.5416
 21
50.686
  0
LINE
  8
0
 10
74.5416
 20
50.686
 11
74.6111
 21
50.7276
  0
LINE
  8
0
 10
74.6111
 20
50.7276
 11
74.6843
 21
50.7622
  0
LINE
  8
0
 10
74.6843
 20
50.7622
 11
74.7605
 21
50.7895
  0
LINE
  8
0
 10
74.7605
 20
50.7895
 11
74.8391
 21
50.8091
  0
LINE
  8
0
 10
74.8391
 20
50.8091
 11
74.9191
 21
50.821
  0
LINE
  8
0
 10
74.9191
 20
50.821
 11
75
 21
50.825
  0
LINE
  8
0
 10
75
 20
50.825
 11
75.0809
 21
50.821
  0
LINE
  8
0
 10
75.0809
 20
50.821
 11
75.1609
 21
50.8091
  0
LINE
  8
0
 10
75.1609
 20
50.8091
 11
75.2395
 21
50.7895
  0
LINE
  8
0
 10
75.2395
 20
50.7895
 11
75.3157
 21
50.7622
  0
LINE
  8
0
 10
75.3157
 20
50.7622
 11
75.3889
 21
50.7276
  0
LINE
  8
0
 10
75.3889
 20
50.7276
 11
75.4583
 21
50.686
  0
LINE
  8
0
 10
75.4583
 20
50.686
 11
75.5234
 21
50.6377
  0
LINE
  8
0
 10
75.5234
 20
50.6377
 11
75.5834
 21
50.5834
  0
LINE
  8
0
 10
75.5834
 20
50.5834
 11
75.6377
 21
50.5234
  0
LINE
  8
0
 10
75.6377
 20
50.5234
 11
75.686
 21
50.4583
  0
LINE
  8
0
 10
75.686
 20
50.4583
 11
75.7276
 21
50.3889
  0
LINE
  8
0
 10
75.7276
 20
50.3889
 11
75.7622
 21
50.3157
  0
LINE
  8
0
 10
75.7622
 20
50.3157
 11
75.7895
 21
50.2395
  0
LINE
  8
0
 10
75.7895
 20
50.2395
 11
75.8091
 21
50.1609
  0
LINE
  8
0
 10
75.8091
 20
50.1609
 11
75.821
 21
50.0809
  0
LINE
  8
0
 10
75.821
 20
50.0809
 11
75.825
 21
50
  0
LINE
  8
0
 10
75.825
 20
50
 11
75.821
 21
49.9191
  0
LINE
  8
0
 10
75.821
 20
49.9191
 11
75.8091
 21
49.8391
  0
LINE
  8
0
 10
75.8091
 20
49.8391
 11
75.7895
 21
49.7605
  0
LINE
  8
0
 10
75.7895
 20
49.7605
 11
75.7622
 21
49.6843
  0
LINE
  8
0
 10
75.7622
 20
49.6843
 11
75.7276
 21
49.6111
  0
LINE
  8
0
 10
75.7276
 20
49.6111
 11
75.686
 21
49.5416
  0
LINE
  8
0
 10
75.686
 20
49.5416
 11
75.6377
 21
49.4766
  0
LINE
  8
0
 10
75.6377
 20
49.4766
 11
75.5834
 21
49.4166
  0
LINE
  8
0
 10
75.5834
 20
49.4166
 11
75.5234
 21
49.3623
  0
LINE
  8
0
 10
75.5234
 20
49.3623
 11
75.4583
 21
49.314
  0
LINE
  8
0
 10
75.4583
 20
49.314
 11
75.3889
 21
49.2724
  0
LINE
  8
0
 10
75.3889
 20
49.2724
 11
75.3157
 21
49.2378
  0
LINE
  8
0
 10
75.3157
 20
49.2378
 11
75.2395
 21
49.2105
  0
LINE
  8
0
 10
75.2395
 20
49.2105
 11
75.1609
 21
49.1908
  0
LINE
  8
0
 10
75.1609
 20
49.1908
 11
75.0809
 21
49.179
  0
LINE
  8
0
 10
75.0809
 20
49.179
 11
75
 21
49.175
  0
LINE
  8
0
 10
75
 20
49.175
 11
74.9191
 21
49.179
  0
LINE
  8
0
 10
124.919
 20
49.179
 11
124.839
 21
49.1908
  0
LINE
  8
0
 10
124.839
 20
49.1908
 11
124.761
 21
49.2105
  0
LINE
  8
0
 10
124.761
 20
49.2105
 11
124.684
 21
49.2378
  0
LINE
  8
0
 10
124.684
 20
49.2378
 11
124.611
 21
49.2724
  0
LINE
  8
0
 10
124.611
 20
49.2724
 11
124.542
 21
49.314
  0
LINE
  8
0
 10
124.542
 20
49.314
 11
124.477
 21
49.3623
  0
LINE
  8
0
 10
124.477
 20
49.3623
 11
124.417
 21
49.4166
  0
LINE
  8
0
 10
124.417
 20
49.4166
 11
124.362
 21
49.4766
  0
LINE
  8
0
 10
124.362
 20
49.4766
 11
124.314
 21
49.5416
  0
LINE
  8
0
 10
124.314
 20
49.5416
 11
124.272
 21
49.6111
  0
LINE
  8
0
 10
124.272
 20
49.6111
 11
124.238
 21
49.6843
  0
LINE
  8
0
 10
124.238
 20
49.6843
 11
124.211
 21
49.7605
  0
LINE
  8
0
 10
124.211
 20
49.7605
 11
124.191
 21
49.8391
  0
LINE
  8
0
 10
124.191
 20
49.8391
 11
124.179
 21
49.9191
  0
LINE
  8
0
 10
124.179
 20
49.9191
 11
124.175
 21
50
  0
LINE
  8
0
 10
124.175
 20
50
 11
124.179
 21
50.0809
  0
LINE
  8
0
 10
124.179
 20
50.0809
 11
124.191
 21
50.1609
  0
LINE
  8
0
 10
124.191
 20
50.1609
 11
124.211
 21
50.2395
  0
LINE
  8
0
 10
124.211
 20
50.2395
 11
124.238
 21
50.3157
  0
LINE
  8
0
 10
124.238
 20
50.3157
 11
124.272
 21
50.3889
  0
LINE
  8
0
 10
124.272
 20
50.3889
 11
124.314
 21
50.4583
  0
LINE
  8
0
 10
124.314
 20
50.4583
 11
124.362
 21
50.5234
  0
LINE
  8
0
 10
124.362
 20
50.5234
 11
124.417
 21
50.5834
  0
LINE
  8
0
 10
124.417
 20
50.5834
 11
124.477
 21
50.6377
  0
LINE
  8
0
 10
124.477
 20
50.6377
 11
124.542
 21
50.686
  0
LINE
  8
0
 10
124.542
 20
50.686
 11
124.611
 21
50.7276
  0
LINE
  8
0
 10
124.611
 20
50.7276
 11
124.684
 21
50.7622
  0
LINE
  8
0
 10
124.684
 20
50.7622
 11
124.761
 21
50.7895
  0
LINE
  8
0
 10
124.761
 20
50.7895
 11
124.839
 21
50.8091
  0
LINE
  8
0
 10
124.839
 20
50.8091
 11
124.919
 21
50.821
  0
LINE
  8
0
 10
124.919
 20
50.821
 11
125
 21
50.825
  0
LINE
  8
0
 10
125
 20
50.825
 11
125.081
 21
50.821
  0
LINE
  8
0
 10
125.081
 20
50.821
 11
125.161
 21
50.8091
  0
LINE
  8
0
 10
125.161
 20
50.8091
 11
125.239
 21
50.7895
  0
LINE
  8
0
 10
125.239
 20
50.7895
 11
125.316
 21
50.7622
  0
LINE
  8
0
 10
125.316
 20
50.7622
 11
125.389
 21
50.7276
  0
LINE
  8
0
 10
125.389
 20
50.7276
 11
125.458
 21
50.686
  0
LINE
  8
0
 10
125.458
 20
50.686
 11
125.523
 21
50.6377
  0
LINE
  8
0
 10
125.523
 20
50.6377
 11
125.583
 21
50.5834
  0
LINE
  8
0
 10
125.583
 20
50.5834
 11
125.638
 21
50.5234
  0
LINE
  8
0
 10
125.638
 20
50.5234
 11
125.686
 21
50.4583
  0
LINE
  8
0
 10
125.686
 20
50.4583
 11
125.728
 21
50.3889
  0
LINE
  8
0
 10
125.728
 20
50.3889
 11
125.762
 21
50.3157
  0
LINE
  8
0
 10
125.762
 20
50.3157
 11
125.789
 21
50.2395
  0
LINE
  8
0
 10
125.789
 20
50.2395
 11
125.809
 21
50.1609
  0
LINE
  8
0
 10
125.809
 20
50.1609
 11
125.821
 21
50.0809
  0
LINE
  8
0
 10
125.821
 20
50.0809
 11
125.825
 21
50
  0
LINE
  8
0
 10
125.825
 20
50
 11
125.821
 21
49.9191
  0
LINE
  8
0
 10
125.821
 20
49.9191
 11
125.809
 21
49.8391
  0
LINE
  8
0
 10
125.809
 20
49.8391
 11
125.789
 21
49.7605
  0
LINE
  8
0
 10
125.789
 20
49.7605
 11
125.762
 21
49.6843
  0
LINE
  8
0
 10
125.762
 20
49.6843
 11
125.728
 21
49.6111
  0
LINE
  8
0
 10
125.728
 20
49.6111
 11
125.686
 21
49.5416
  0
LINE
  8
0
 10
125.686
 20
49.5416
 11
125.638
 21
49.4766
  0
LINE
  8
0
 10
125.638
 20
49.4766
 11
125.583
 21
49.4166
  0
LINE
  8
0
 10
125.583
 20
49.4166
 11
125.523
 21
49.3623
  0
LINE
  8
0
 10
125.523
 20
49.3623
 11
125.458
 21
49.314
  0
LINE
  8
0
 10
125.458
 20
49.314
 11
125.389
 21
49.2724
  0
LINE
  8
0
 10
125.389
 20
49.2724
 11
125.316
 21
49.2378
  0
LINE
  8
0
 10
125.316
 20
49.2378
 11
125.239
 21
49.2105
  0
LINE
  8
0
 10
125.239
 20
49.2105
 11
125.161
 21
49.1908
  0
LINE
  8
0
 10
125.161
 20
49.1908
 11
125.081
 21
49.179
  0
LINE
  8
0
 10
125.081
 20
49.179
 11
125
 21
49.175
  0
LINE
  8
0
 10
125
 20
49.175
 11
124.919
 21
49.179
  0
LINE
  8
0
 10
174.919
 20
49.179
 11
174.839
 21
49.1908
  0
LINE
  8
0
 10
174.839
 20
49.1908
 11
174.761
 21
49.2105
  0
LINE
  8
0
 10
174.761
 20
49.2105
 11
174.684
 21
49.2378
  0
LINE
  8
0
 10
174.684
 20
49.2378
 11
174.611
 21
49.2724
  0
LINE
  8
0
 10
174.611
 20
49.2724
 11
174.542
 21
49.314
  0
LINE
  8
0
 10
174.542
 20
49.314
 11
174.477
 21
49.3623
  0
LINE
  8
0
 10
174.477
 20
49.3623
 11
174.417
 21
49.4166
  0
LINE
  8
0
 10
174.417
 20
49.4166
 11
174.362
 21
49.4766
  0
LINE
  8
0
 10
174.362
 20
49.4766
 11
174.314
 21
49.5416
  0
LINE
  8
0
 10
174.314
 20
49.5416
 11
174.272
 21
49.6111
  0
LINE
  8
0
 10
174.272
 20
49.6111
 11
174.238
 21
49.6843
  0
LINE
  8
0
 10
174.238
 20
49.6843
 11
174.211
 21
49.7605
  0
LINE
  8
0
 10
174.211
 20
49.7605
 11
174.191
 21
49.8391
  0
LINE
  8
0
 10
174.191
 20
49.8391
 11
174.179
 21
49.9191
  0
LINE
  8
0
 10
174.179
 20
49.9191
 11
174.175
 21
50
  0
LINE
  8
0
 10
174.175
 20
50
 11
174.179
 21
50.0809
  0
LINE
  8
0
 10
174.179
 20
50.0809
 11
174.191
 21
50.1609
  0
LINE
  8
0
 10
174.191
 20
50.1609
 11
174.211
 21
50.2395
  0
LINE
  8
0
 10
174.211
 20
50.2395
 11
174.238
 21
50.3157
  0
LINE
  8
0
 10
174.238
 20
50.3157
 11
174.272
 21
50.3889
  0
LINE
  8
0
 10
174.272
 20
50.3889
 11
174.314
 21
50.4583
  0
LINE
  8
0
 10
174.314
 20
50.4583
 11
174.362
 21
50.5234
  0
LINE
  8
0
 10
174.362
 20
50.5234
 11
174.417
 21
50.5834
  0
LINE
  8
0
 10
174.417
 20
50.5834
 11
174.477
 21
50.6377
  0
LINE
  8
0
 10
174.477
 20
50.6377
 11
174.542
 21
50.686
  0
LINE
  8
0
 10
174.542
 20
50.686
 11
174.611
 21
50.7276
  0
LINE
  8
0
 10
174.611
 20
50.7276
 11
174.684
 21
50.7622
  0
LINE
  8
0
 10
174.684
 20
50.7622
 11
174.761
 21
50.7895
  0
LINE
  8
0
 10
174.761
 20
50.7895
 11
174.839
 21
50.8091
  0
LINE
  8
0
 10
174.839
 20
50.8091
 11
174.919
 21
50.821
  0
LINE
  8
0
 10
174.919
 20
50.821
 11
175
 21
50.825
  0
LINE
  8
0
 10
175
 20
50.825
 11
175.081
 21
50.821
  0
LINE
  8
0
 10
175.081
 20
50.821
 11
175.161
 21
50.8091
  0
LINE
  8
0
 10
175.161
 20
50.8091
 11
175.239
 21
50.7895
  0
LINE
  8
0
 10
175.239
 20
50.7895
 11
175.316
 21
50.7622
  0
LINE
  8
0
 10
175.316
 20
50.7622
 11
175.389
 21
50.7276
  0
LINE
  8
0
 10
175.389
 20
50.7276
 11
175.458
 21
50.686
  0
LINE
  8
0
 10
175.458
 20
50.686
 11
175.523
 21
50.6377
  0
LINE
  8
0
 10
175.523
 20
50.6377
 11
175.583
 21
50.5834
  0
LINE
  8
0
 10
175.583
 20
50.5834
 11
175.638
 21
50.5234
  0
LINE
  8
0
 10
175.638
 20
50.5234
 11
175.686
 21
50.4583
  0
LINE
  8
0
 10
175.686
 20
50.4583
 11
175.728
 21
50.3889
  0
LINE
  8
0
 10
175.728
 20
50.3889
 11
175.762
 21
50.3157
  0
LINE
  8
0
 10
175.762
 20
50.3157
 11
175.789
 21
50.2395
  0
LINE
  8
0
 10
175.789
 20
50.2395
 11
175.809
 21
50.1609
  0
LINE
  8
0
 10
175.809
 20
50.1609
 11
175.821
 21
50.0809
  0
LINE
  8
0
 10
175.821
 20
50.0809
 11
175.825
 21
50
  0
LINE
  8
0
 10
175.825
 20
50
 11
175.821
 21
49.9191
  0
LINE
  8
0
 10
175.821
 20
49.9191
 11
175.809
 21
49.8391
  0
LINE
  8
0
 10
175.809
 20
49.8391
 11
175.789
 21
49.7605
  0
LINE
  8
0
 10
175.789
 20
49.7605
 11
175.762
 21
49.6843
  0
LINE
  8
0
 10
175.762
 20
49.6843
 11
175.728
 21
49.6111
  0
LINE
  8
0
 10
175.728
 20
49.6111
 11
175.686
 21
49.5416
  0
LINE
  8
0
 10
175.686
 20
49.5416
 11
175.638
 21
49.4766
  0
LINE
  8
0
 10
175.638
 20
49.4766
 11
175.583
 21
49.4166
  0
LINE
  8
0
 10
175.583
 20
49.4166
 11
175.523
 21
49.3623
  0
LINE
  8
0
 10
175.523
 20
49.3623
 11
175.458
 21
49.314
  0
LINE
  8
0
 10
175.458
 20
49.314
 11
175.389
 21
49.2724
  0
LINE
  8
0
 10
175.389
 20
49.2724
 11
175.316
 21
49.2378
  0
LINE
  8
0
 10
175.316
 20
49.2378
 11
175.239
 21
49.2105
  0
LINE
  8
0
 10
175.239
 20
49.2105
 11
175.161
 21
49.1908
  0
LINE
  8
0
 10
175.161
 20
49.1908
 11
175.081
 21
49.179
  0
LINE
  8
0
 10
175.081
 20
49.179
 11
175
 21
49.175
  0
LINE
  8
0
 10
175
 20
49.175
 11
174.919
 21
49.179
  0
LINE
  8
0
 10
224.919
 20
49.179
 11
224.839
 21
49.1908
  0
LINE
  8
0
 10
224.839
 20
49.1908
 11
224.761
 21
49.2105
  0
LINE
  8
0
 10
224.761
 20
49.2105
 11
224.684
 21
49.2378
  0
LINE
  8
0
 10
224.684
 20
49.2378
 11
224.611
 21
49.2724
  0
LINE
  8
0
 10
224.611
 20
49.2724
 11
224.542
 21
49.314
  0
LINE
  8
0
 10
224.542
 20
49.314
 11
224.477
 21
49.3623
  0
LINE
  8
0
 10
224.477
 20
49.3623
 11
224.417
 21
49.4166
  0
LINE
  8
0
 10
224.417
 20
49.4166
 11
224.362
 21
49.4766
  0
LINE
  8
0
 10
224.362
 20
49.4766
 11
224.314
 21
49.5416
  0
LINE
  8
0
 10
224.314
 20
49.5416
 11
224.272
 21
49.6111
  0
LINE
  8
0
 10
224.272
 20
49.6111
 11
224.238
 21
49.6843
  0
LINE
  8
0
 10
224.238
 20
49.6843
 11
224.211
 21
49.7605
  0
LINE
  8
0
 10
224.211
 20
49.7605
 11
224.191
 21
49.8391
  0
LINE
  8
0
 10
224.191
 20
49.8391
 11
224.179
 21
49.9191
  0
LINE
  8
0
 10
224.179
 20
49.9191
 11
224.175
 21
50
  0
LINE
  8
0
 10
224.175
 20
50
 11
224.179
 21
50.0809
  0
LINE
  8
0
 10
224.179
 20
50.0809
 11
224.191
 21
50.1609
  0
LINE
  8
0
 10
224.191
 20
50.1609
 11
224.211
 21
50.2395
  0
LINE
  8
0
 10
224.211
 20
50.2395
 11
224.238
 21
50.3157
  0
LINE
  8
0
 10
224.238
 20
50.3157
 11
224.272
 21
50.3889
  0
LINE
  8
0
 10
224.272
 20
50.3889
 11
224.314
 21
50.4583
  0
LINE
  8
0
 10
224.314
 20
50.4583
 11
224.362
 21
50.5234
  0
LINE
  8
0
 10
224.362
 20
50.5234
 11
224.417
 21
50.5834
  0
LINE
  8
0
 10
224.417
 20
50.5834
 11
224.477
 21
50.6377
  0
LINE
  8
0
 10
224.477
 20
50.6377
 11
224.542
 21
50.686
  0
LINE
  8
0
 10
224.542
 20
50.686
 11
224.611
 21
50.7276
  0
LINE
  8
0
 10
224.611
 20
50.7276
 11
224.684
 21
50.7622
  0
LINE
  8
0
 10
224.684
 20
50.7622
 11
224.761
 21
50.7895
  0
LINE
  8
0
 10
224.761
 20
50.7895
 11
224.839
 21
50.8091
  0
LINE
  8
0
 10
224.839
 20
50.8091
 11
224.919
 21
50.821
  0
LINE
  8
0
 10
224.919
 20
50.821
 11
225
 21
50.825
  0
LINE
  8
0
 10
225
 20
50.825
 11
225.081
 21
50.821
  0
LINE
  8
0
 10
225.081
 20
50.821
 11
225.161
 21
50.8091
  0
LINE
  8
0
 10
225.161
 20
50.8091
 11
225.239
 21
50.7895
  0
LINE
  8
0
 10
225.239
 20
50.7895
 11
225.316
 21
50.7622
  0
LINE
  8
0
 10
225.316
 20
50.7622
 11
225.389
 21
50.7276
  0
LINE
  8
0
 10
225.389
 20
50.7276
 11
225.458
 21
50.686
  0
LINE
  8
0
 10
225.458
 20
50.686
 11
225.523
 21
50.6377
  0
LINE
  8
0
 10
225.523
 20
50.6377
 11
225.583
 21
50.5834
  0
LINE
  8
0
 10
225.583
 20
50.5834
 11
225.638
 21
50.5234
  0
LINE
  8
0
 10
225.638
 20
50.5234
 11
225.686
 21
50.4583
  0
LINE
  8
0
 10
225.686
 20
50.4583
 11
225.728
 21
50.3889
  0
LINE
  8
0
 10
225.728
 20
50.3889
 11
225.762
 21
50.3157
  0
LINE
  8
0
 10
225.762
 20
50.3157
 11
225.789
 21
50.2395
  0
LINE
  8
0
 10
225.789
 20
50.2395
 11
225.809
 21
50.1609
  0
LINE
  8
0
 10
225.809
 20
50.1609
 11
225.821
 21
50.0809
  0
LINE
  8
0
 10
225.821
 20
50.0809
 11
225.825
 21
50
  0
LINE
  8
0
 10
225.825
 20
50
 11
225.821
 21
49.9191
  0
LINE
  8
0
 10
225.821
 20
49.9191
 11
225.809
 21
49.8391
  0
LINE
  8
0
 10
225.809
 20
49.8391
 11
225.789
 21
49.7605
  0
LINE
  8
0
 10
225.789
 20
49.7605
 11
225.762
 21
49.6843
  0
LINE
  8
0
 10
225.762
 20
49.6843
 11
225.728
 21
49.6111
  0
LINE
  8
0
 10
225.728
 20
49.6111
 11
225.686
 21
49.5416
  0
LINE
  8
0
 10
225.686
 20
49.5416
 11
225.638
 21
49.4766
  0
LINE
  8
0
 10
225.638
 20
49.4766
 11
225.583
 21
49.4166
  0
LINE
  8
0
 10
225.583
 20
49.4166
 11
225.523
 21
49.3623
  0
LINE
  8
0
 10
225.523
 20
49.3623
 11
225.458
 21
49.314
  0
LINE
  8
0
 10
225.458
 20
49.314
 11
225.389
 21
49.2724
  0
LINE
  8
0
 10
225.389
 20
49.2724
 11
225.316
 21
49.2378
  0
LINE
  8
0
 10
225.316
 20
49.2378
 11
225.239
 21
49.2105
  0
LINE
  8
0
 10
225.239
 20
49.2105
 11
225.161
 21
49.1908
  0
LINE
  8
0
 10
225.161
 20
49.1908
 11
225.081
 21
49.179
  0
LINE
  8
0
 10
225.081
 20
49.179
 11
225
 21
49.175
  0
LINE
  8
0
 10
225
 20
49.175
 11
224.919
 21
49.179
  0
ENDSEC
  0
SECTION
  2
OBJECTS
  0
DICTIONARY
  0
ENDSEC
  0
EOF
