<?xml version="1.0" standalone="no"?>
<!DOCTYPE svg PUBLIC "-//W3C//DTD SVG 1.1//EN" "http://www.w3.org/Graphics/SVG/1.1/DTD/svg11.dtd">
<svg width="250mm" height="100mm" viewBox="0 -100 250 100" xmlns="http://www.w3.org/2000/svg" version="1.1">
<title>OpenSCAD Model</title>
<path d="
M 250,-8.83882 L 250,-37.5 L 248.775,-37.5602 L 247.561,-37.7402 L 246.371,-38.0382 L 245.216,-38.4515
 L 244.108,-38.976 L 243.055,-39.6066 L 242.07,-40.3374 L 241.161,-41.1612 L 240.337,-42.0701 L 239.607,-43.0554
 L 238.976,-44.1075 L 238.451,-45.2164 L 238.038,-46.3714 L 237.74,-47.5614 L 237.56,-48.7748 L 237.5,-50
 L 237.56,-51.2252 L 237.74,-52.4386 L 238.038,-53.6286 L 238.451,-54.7835 L 238.976,-55.8925 L 239.607,-56.9446
 L 240.337,-57.9299 L 241.161,-58.8388 L 242.07,-59.6626 L 243.055,-60.3934 L 244.108,-61.024 L 245.216,-61.5485
 L 246.371,-61.9617 L 247.561,-62.2598 L 248.775,-62.4398 L 250,-62.5 L 250,-91.1612 L 241.161,-100
 L 8.83882,-100 L 0,-91.1612 L 0,-62.5 L 1.2252,-62.4398 L 2.43861,-62.2598 L 3.62856,-61.9617
 L 4.78354,-61.5485 L 5.89246,-61.024 L 6.94463,-60.3934 L 7.9299,-59.6626 L 8.83882,-58.8388 L 9.66263,-57.9299
 L 10.3934,-56.9446 L 11.024,-55.8925 L 11.5485,-54.7835 L 11.9617,-53.6286 L 12.2598,-52.4386 L 12.4398,-51.2252
 L 12.5,-50 L 12.4398,-48.7748 L 12.2598,-47.5614 L 11.9617,-46.3714 L 11.5485,-45.2164 L 11.024,-44.1075
 L 10.3934,-43.0554 L 9.66263,-42.0701 L 8.83882,-41.1612 L 7.9299,-40.3374 L 6.94463,-39.6066 L 5.89246,-38.976
 L 4.78354,-38.4515 L 3.62856,-38.0382 L 2.43861,-37.7402 L 1.2252,-37.5602 L 0,-37.5 L 0,-8.83882
 L 8.83882,-0 L 241.161,-0 z
M 24.9191,-49.179 L 24.8391,-49.1908 L 24.7605,-49.2105 L 24.6843,-49.2378 L 24.6111,-49.2724 L 24.5416,-49.314
 L 24.4766,-49.3623 L 24.4166,-49.4166 L 24.3623,-49.4766 L 24.314,-49.5416 L 24.2724,-49.6111 L 24.2378,-49.6843
 L 24.2105,-49.7605 L 24.1908,-49.8391 L 24.179,-49.9191 L 24.175,-50 L 24.179,-50.0809 L 24.1908,-50.1609
 L 24.2105,-50.2395 L 24.2378,-50.3157 L 24.2724,-50.3889 L 24.314,-50.4583 L 24.3623,-50.5234 L 24.4166,-50.5834
 L 24.4766,-50.6377 L 24.5416,-50.686 L 24.6111,-50.7276 L 24.6843,-50.7622 L 24.7605,-50.7895 L 24.8391,-50.8091
 L 24.9191,-50.821 L 25,-50.825 L 25.0809,-50.821 L 25.1609,-50.8091 L 25.2395,-50.7895 L 25.3157,-50.7622
 L 25.3889,-50.7276 L 25.4583,-50.686 L 25.5234,-50.6377 L 25.5834,-50.5834 L 25.6377,-50.5234 L 25.686,-50.4583
 L 25.7276,-50.3889 L 25.7622,-50.3157 L 25.7895,-50.2395 L 25.8091,-50.1609 L 25.821,-50.0809 L 25.825,-50
 L 25.821,-49.9191 L 25.8091,-49.8391 L 25.7895,-49.7605 L 25.7622,-49.6843 L 25.7276,-49.6111 L 25.686,-49.5416
 L 25.6377,-49.4766 L 25.5834,-49.4166 L 25.5234,-49.3623 L 25.4583,-49.314 L 25.3889,-49.2724 L 25.3157,-49.2378
 L 25.2395,-49.2105 L 25.1609,-49.1908 L 25.0809,-49.179 L 25,-49.175 z
M 74.9191,-49.179 L 74.8391,-49.1908 L 74.7605,-49.2105 L 74.6843,-49.2378 L 74.6111,-49.2724 L 74.5416,-49.314
 L 74.4766,-49.3623 L 74.4166,-49.4166 L 74.3623,-49.4766 L 74.314,-49.5416 L 74.2724,-49.6111 L 74.2378,-49.6843
 L 74.2105,-49.7605 L 74.1908,-49.8391 L 74.179,-49.9191 L 74.175,-50 L 74.179,-50.0809 L 74.1908,-50.1609
 L 74.2105,-50.2395 L 74.2378,-50.3157 L 74.2724,-50.3889 L 74.314,-50.4583 L 74.3623,-50.5234 L 74.4166,-50.5834
 L 74.4766,-50.6377 L 74.5416,-50.686 L 74.6111,-50.7276 L 74.6843,-50.7622 L 74.7605,-50.7895 L 74.8391,-50.8091
 L 74.9191,-50.821 L 75,-50.825 L 75.0809,-50.821 L 75.1609,-50.8091 L 75.2395,-50.7895 L 75.3157,-50.7622
 L 75.3889,-50.7276 L 75.4583,-50.686 L 75.5234,-50.6377 L 75.5834,-50.5834 L 75.6377,-50.5234 L 75.686,-50.4583
 L 75.7276,-50.3889 L 75.7622,-50.3157 L 75.7895,-50.2395 L 75.8091,-50.1609 L 75.821,-50.0809 L 75.825,-50
 L 75.821,-49.9191 L 75.8091,-49.8391 L 75.7895,-49.7605 L 75.7622,-49.6843 L 75.7276,-49.6111 L 75.686,-49.5416
 L 75.6377,-49.4766 L 75.5834,-49.4166 L 75.5234,-49.3623 L 75.4583,-49.314 L 75.3889,-49.2724 L 75.3157,-49.2378
 L 75.2395,-49.2105 L 75.1609,-49.1908 L 75.0809,-49.179 L 75,-49.175 z
M 124.919,-49.179 L 124.839,-49.1908 L 124.761,-49.2105 L 124.684,-49.2378 L 124.611,-49.2724 L 124.542,-49.314
 L 124.477,-49.3623 L 124.417,-49.4166 L 124.362,-49.4766 L 124.314,-49.5416 L 124.272,-49.6111 L 124.238,-49.6843
 L 124.211,-49.7605 L 124.191,-49.8391 L 124.179,-49.9191 L 124.175,-50 L 124.179,-50.0809 L 124.191,-50.1609
 L 124.211,-50.2395 L 124.238,-50.3157 L 124.272,-50.3889 L 124.314,-50.4583 L 124.362,-50.5234 L 124.417,-50.5834
 L 124.477,-50.6377 L 124.542,-50.686 L 124.611,-50.7276 L 124.684,-50.7622 L 124.761,-50.7895 L 124.839,-50.8091
 L 124.919,-50.821 L 125,-50.825 L 125.081,-50.821 L 125.161,-50.8091 L 125.239,-50.7895 L 125.316,-50.7622
 L 125.389,-50.7276 L 125.458,-50.686 L 125.523,-50.6377 L 125.583,-50.5834 L 125.638,-50.5234 L 125.686,-50.4583
 L 125.728,-50.3889 L 125.762,-50.3157 L 125.789,-50.2395 L 125.809,-50.1609 L 125.821,-50.0809 L 125.825,-50
 L 125.821,-49.9191 L 125.809,-49.8391 L 125.789,-49.7605 L 125.762,-49.6843 L 125.728,-49.6111 L 125.686,-49.5416
 L 125.638,-49.4766 L 125.583,-49.4166 L 125.523,-49.3623 L 125.458,-49.314 L 125.389,-49.2724 L 125.316,-49.2378
 L 125.239,-49.2105 L 125.161,-49.1908 L 125.081,-49.179 L 125,-49.175 z
M 174.919,-49.179 L 174.839,-49.1908 L 174.761,-49.2105 L 174.684,-49.2378 L 174.611,-49.2724 L 174.542,-49.314
 L 174.477,-49.3623 L 174.417,-49.4166 L 174.362,-49.4766 L 174.314,-49.5416 L 174.272,-49.6111 L 174.238,-49.6843
 L 174.211,-49.7605 L 174.191,-49.8391 L 174.179,-49.9191 L 174.175,-50 L 174.179,-50.0809 L 174.191,-50.1609
 L 174.211,-50.2395 L 174.238,-50.3157 L 174.272,-50.3889 L 174.314,-50.4583 L 174.362,-50.5234 L 174.417,-50.5834
 L 174.477,-50.6377 L 174.542,-50.686 L 174.611,-50.7276 L 174.684,-50.7622 L 174.761,-50.7895 L 174.839,-50.8091
 L 174.919,-50.821 L 175,-50.825 L 175.081,-50.821 L 175.161,-50.8091 L 175.239,-50.7895 L 175.316,-50.7622
 L 175.389,-50.7276 L 175.458,-50.686 L 175.523,-50.6377 L 175.583,-50.5834 L 175.638,-50.5234 L 175.686,-50.4583
 L 175.728,-50.3889 L 175.762,-50.3157 L 175.789,-50.2395 L 175.809,-50.1609 L 175.821,-50.0809 L 175.825,-50
 L 175.821,-49.9191 L 175.809,-49.8391 L 175.789,-49.7605 L 175.762,-49.6843 L 175.728,-49.6111 L 175.686,-49.5416
 L 175.638,-49.4766 L 175.583,-49.4166 L 175.523,-49.3623 L 175.458,-49.314 L 175.389,-49.2724 L 175.316,-49.2378
 L 175.239,-49.2105 L 175.161,-49.1908 L 175.081,-49.179 L 175,-49.175 z
M 224.919,-49.179 L 224.839,-49.1908 L 224.761,-49.2105 L 224.684,-49.2378 L 224.611,-49.2724 L 224.542,-49.314
 L 224.477,-49.3623 L 224.417,-49.4166 L 224.362,-49.4766 L 224.314,-49.5416 L 224.272,-49.6111 L 224.238,-49.6843
 L 224.211,-49.7605 L 224.191,-49.8391 L 224.179,-49.9191 L 224.175,-50 L 224.179,-50.0809 L 224.191,-50.1609
 L 224.211,-50.2395 L 224.238,-50.3157 L 224.272,-50.3889 L 224.314,-50.4583 L 224.362,-50.5234 L 224.417,-50.5834
 L 224.477,-50.6377 L 224.542,-50.686 L 224.611,-50.7276 L 224.684,-50.7622 L 224.761,-50.7895 L 224.839,-50.8091
 L 224.919,-50.821 L 225,-50.825 L 225.081,-50.821 L 225.161,-50.8091 L 225.239,-50.7895 L 225.316,-50.7622
 L 225.389,-50.7276 L 225.458,-50.686 L 225.523,-50.6377 L 225.583,-50.5834 L 225.638,-50.5234 L 225.686,-50.4583
 L 225.728,-50.3889 L 225.762,-50.3157 L 225.789,-50.2395 L 225.809,-50.1609 L 225.821,-50.0809 L 225.825,-50
 L 225.821,-49.9191 L 225.809,-49.8391 L 225.789,-49.7605 L 225.762,-49.6843 L 225.728,-49.6111 L 225.686,-49.5416
 L 225.638,-49.4766 L 225.583,-49.4166 L 225.523,-49.3623 L 225.458,-49.314 L 225.389,-49.2724 L 225.316,-49.2378
 L 225.239,-49.2105 L 225.161,-49.1908 L 225.081,-49.179 L 225,-49.175 z
" stroke="black" fill="lightgray" stroke-width="0.5"/>
</svg>
